<?xml version="1.0" encoding="UTF-8"?>
<svg id="logo" xmlns="http://www.w3.org/2000/svg" viewBox="0 0 140 69.9">
  <path d="M20.03,8.96c-4.62,2.69-8.27,6.33-10.92,10.92-2.66,4.59-3.99,9.61-3.99,15.06s1.33,10.56,3.99,15.15c2.66,4.59,6.29,8.22,10.88,10.88,4.59,2.66,9.67,3.99,15.25,3.99h69.44c5.57,0,10.67-1.33,15.29-3.99,4.62-2.66,8.27-6.29,10.92-10.88,2.66-4.59,3.99-9.64,3.99-15.15s-1.33-10.47-3.99-15.06c-2.66-4.59-6.3-8.23-10.92-10.92-4.62-2.69-9.72-4.04-15.29-4.04H35.23c-5.51,0-10.58,1.34-15.2,4.04Z" fill="#faf5f5"/>
  <path d="M121.59,6.16c5.13,2.98,9.17,7.01,12.11,12.11,2.94,5.1,4.42,10.65,4.42,16.67s-1.47,11.75-4.42,16.81c-2.94,5.07-6.98,9.07-12.11,12.02-5.13,2.94-10.77,4.42-16.91,4.42H35.23c-6.14,0-11.76-1.47-16.86-4.42-5.1-2.94-9.12-6.95-12.06-12.02-2.94-5.07-4.42-10.67-4.42-16.81s1.47-11.58,4.42-16.67c2.94-5.1,6.97-9.14,12.06-12.11,5.1-2.98,10.72-4.46,16.86-4.46h69.44c6.14,0,11.78,1.49,16.91,4.46ZM20.03,8.96c-4.62,2.69-8.27,6.33-10.92,10.92-2.66,4.59-3.99,9.61-3.99,15.06s1.33,10.56,3.99,15.15c2.66,4.59,6.29,8.22,10.88,10.88,4.59,2.66,9.67,3.99,15.25,3.99h69.44c5.57,0,10.67-1.33,15.29-3.99,4.62-2.66,8.27-6.29,10.92-10.88,2.66-4.59,3.99-9.64,3.99-15.15s-1.33-10.47-3.99-15.06c-2.66-4.59-6.3-8.23-10.92-10.92-4.62-2.69-9.72-4.04-15.29-4.04H35.23c-5.51,0-10.58,1.34-15.2,4.04ZM22.03,12.24c-3.99,2.34-7.16,5.53-9.5,9.55-2.34,4.02-3.52,8.41-3.52,13.16s1.17,9.21,3.52,13.21c2.34,3.99,5.51,7.16,9.5,9.5,3.99,2.34,8.36,3.52,13.11,3.52s9.12-1.17,13.11-3.52c3.99-2.34,7.16-5.51,9.5-9.5,2.34-3.99,3.52-8.39,3.52-13.21s-1.17-9.14-3.52-13.16c-2.34-4.02-5.51-7.21-9.5-9.55-3.99-2.34-8.36-3.51-13.11-3.51s-9.12,1.17-13.11,3.51Z" fill="#141414"/>
</svg>