<?xml version="1.0" encoding="UTF-8"?>
<svg id="Type" xmlns="http://www.w3.org/2000/svg" viewBox="0 0 595.28 1683.78">
  <path d="M11.93,6.15h22.3c4.14,0,7.52.74,10.14,2.22,2.62,1.48,4.52,3.74,5.7,6.78,1.18,3.04,1.77,6.89,1.77,11.53v21.67c0,4.56-.59,8.38-1.77,11.47-1.18,3.08-3.06,5.37-5.64,6.84-2.58,1.48-5.89,2.22-9.95,2.22H13.84v-2.53h20.65c5.32,0,9.08-1.41,11.28-4.24,2.2-2.83,3.29-7.41,3.29-13.75v-21.67c0-6.25-1.12-10.79-3.36-13.62-2.24-2.83-6.02-4.25-11.34-4.25H14.47v86.04h-2.53V6.15Z" fill="lime"/>
  <path d="M73.7,92.95c-3.17-1.94-5.53-4.81-7.1-8.62-1.56-3.8-2.34-8.49-2.34-14.07V30.86c0-5.66.78-10.39,2.34-14.19,1.56-3.8,3.93-6.67,7.1-8.62,3.17-1.94,7.12-2.91,11.85-2.91h1.14c4.73,0,8.64.99,11.72,2.98,3.08,1.99,5.41,4.86,6.97,8.62,1.56,3.76,2.34,8.47,2.34,14.13v39.41c0,5.58-.78,10.24-2.34,14-1.56,3.76-3.89,6.63-6.97,8.62-3.08,1.98-6.99,2.98-11.72,2.98h-1.14c-4.73,0-8.68-.97-11.85-2.91ZM100.5,87.5c2.96-3.8,4.44-9.54,4.44-17.23V30.86c0-7.77-1.48-13.56-4.44-17.36-2.96-3.8-7.56-5.7-13.81-5.7h-1.14c-6.34,0-11.02,1.9-14.07,5.7s-4.56,9.59-4.56,17.36v39.41c0,7.77,1.52,13.54,4.56,17.3,3.04,3.76,7.73,5.64,14.07,5.64h1.14c6.25,0,10.85-1.9,13.81-5.7Z" fill="lime"/>
  <path d="M319,93.01c-3.08-1.9-5.38-4.73-6.91-8.49-1.52-3.76-2.28-8.38-2.28-13.88V30.35c0-5.58.76-10.22,2.28-13.94,1.52-3.72,3.82-6.53,6.91-8.43,3.08-1.9,7.03-2.85,11.85-2.85h1.27c4.48,0,8.15.91,11.02,2.72,2.87,1.82,5.02,4.33,6.46,7.54,1.44,3.21,2.15,6.89,2.15,11.02v15.21h-2.66v-15.21c0-3.72-.59-6.97-1.77-9.76-1.18-2.79-3.02-4.96-5.51-6.53-2.49-1.56-5.72-2.34-9.69-2.34h-1.27c-6.34,0-11,1.86-14,5.58-3,3.72-4.5,9.38-4.5,16.98v40.29c0,7.6,1.5,13.26,4.5,16.98,3,3.72,7.67,5.58,14,5.58h1.27c3.97,0,7.2-.78,9.69-2.34,2.49-1.56,4.33-3.74,5.51-6.53,1.18-2.79,1.77-6.04,1.77-9.76v-10.9h2.66v10.9c0,4.14-.72,7.81-2.15,11.02-1.44,3.21-3.59,5.72-6.46,7.54-2.87,1.82-6.55,2.72-11.02,2.72h-1.27c-4.82,0-8.77-.95-11.85-2.85Z" fill="lime"/>
  <path d="M360.07,6.15h2.79l16.22,50.69h3.67l16.22-50.69h2.91l-17.11,53.35h-7.6l-17.11-53.35ZM379.58,57.47h2.66v37.38h-2.66v-37.38Z" fill="lime"/>
  <path d="M418.67,93.01c-3.08-1.9-5.38-4.73-6.91-8.49-1.52-3.76-2.28-8.38-2.28-13.88V30.35c0-5.58.76-10.22,2.28-13.94,1.52-3.72,3.82-6.53,6.91-8.43,3.08-1.9,7.03-2.85,11.85-2.85h1.27c4.48,0,8.15.91,11.02,2.72,2.87,1.82,5.02,4.33,6.46,7.54,1.44,3.21,2.15,6.89,2.15,11.02v15.21h-2.66v-15.21c0-3.72-.59-6.97-1.77-9.76-1.18-2.79-3.02-4.96-5.51-6.53-2.49-1.56-5.72-2.34-9.69-2.34h-1.27c-6.34,0-11,1.86-14,5.58-3,3.72-4.5,9.38-4.5,16.98v40.29c0,7.6,1.5,13.26,4.5,16.98,3,3.72,7.67,5.58,14,5.58h1.27c3.97,0,7.2-.78,9.69-2.34,2.49-1.56,4.33-3.74,5.51-6.53,1.18-2.79,1.77-6.04,1.77-9.76v-10.9h2.66v10.9c0,4.14-.72,7.81-2.15,11.02-1.44,3.21-3.59,5.72-6.46,7.54-2.87,1.82-6.55,2.72-11.02,2.72h-1.27c-4.82,0-8.77-.95-11.85-2.85Z" fill="lime"/>
  <path d="M551.59,93.33c-2.79-1.6-4.86-3.95-6.21-7.03-1.35-3.08-2.03-6.86-2.03-11.34v-10.52h2.53v10.39c0,4.14.61,7.54,1.84,10.2,1.22,2.66,3.02,4.69,5.38,6.08,2.36,1.39,5.32,2.09,8.87,2.09h1.77c5.07,0,8.93-1.31,11.59-3.93,2.66-2.62,3.99-6.5,3.99-11.66v-.76c0-4.73-.76-8.62-2.28-11.66s-3.42-5.51-5.7-7.41c-2.28-1.9-5.28-3.91-9-6.02-3.97-2.45-7.14-4.67-9.5-6.65-2.37-1.98-4.37-4.71-6.02-8.17-1.65-3.46-2.47-7.9-2.47-13.3v-.38c0-3.97.65-7.29,1.96-9.95,1.31-2.66,3.23-4.67,5.77-6.02,2.53-1.35,5.66-2.03,9.38-2.03h1.9c3.88,0,7.16.78,9.82,2.34,2.66,1.56,4.65,3.86,5.96,6.91,1.31,3.04,1.96,6.8,1.96,11.28v12.16h-2.66v-12.16c0-3.88-.57-7.18-1.71-9.88-1.14-2.7-2.83-4.73-5.07-6.08-2.24-1.35-5-2.03-8.3-2.03h-1.9c-4.65,0-8.22,1.29-10.71,3.86-2.49,2.58-3.74,6.4-3.74,11.47v.51c0,4.9.76,8.96,2.28,12.16,1.52,3.21,3.42,5.79,5.7,7.73,2.28,1.94,5.28,4.01,9,6.21,3.97,2.37,7.14,4.52,9.5,6.46,2.36,1.94,4.37,4.6,6.02,7.98,1.65,3.38,2.47,7.65,2.47,12.8v.63c0,3.97-.72,7.31-2.15,10.01-1.44,2.7-3.51,4.73-6.21,6.08-2.7,1.35-6,2.03-9.88,2.03h-1.9c-4.05,0-7.48-.8-10.26-2.41Z" fill="lime"/>
  <path d="M224.65,8.81h-25.85v83.38h25.85v2.66h-28.38V6.15h28.38v2.66ZM196.9,52.65h26.61v2.66h-26.61v-2.66Z" fill="lime"/>
  <path d="M533.02,8.81h-25.85v83.38h25.85v2.66h-28.38V6.15h28.38v2.66ZM505.27,52.65h26.61v2.66h-26.61v-2.66Z" fill="lime"/>
  <path d="M465.45,6.15h2.53v86.04h26.1v2.66h-28.64V6.15Z" fill="lime"/>
  <path d="M268.45,48.22c2.28-2.79,3.42-7.18,3.42-13.18v-9.25c0-5.74-1.14-10.03-3.42-12.86-2.28-2.83-5.79-4.25-10.52-4.25h-17.99v86.17h-2.53V6.15h20.4c5.58,0,9.78,1.65,12.61,4.94,2.83,3.29,4.24,8.19,4.24,14.7v9.38c0,4.99-.91,9.04-2.72,12.16-1.82,3.13-4.33,5.11-7.54,5.96v.63c3.04.76,5.3,2.43,6.78,5.01,1.48,2.58,2.22,6.06,2.22,10.45v16.22c0,2.7.29,4.54.89,5.51.59.97,1.9,1.46,3.93,1.46.67-.08,1.39-.17,2.15-.25v2.66c-.25.08-.57.13-.95.13h-1.08c-1.94,0-3.46-.32-4.56-.95-1.1-.63-1.9-1.63-2.41-2.98-.51-1.35-.76-3.17-.76-5.45v-16.35c0-5.07-1.04-8.72-3.1-10.96-2.07-2.24-5.3-3.36-9.69-3.36h-18.5v-2.66h18.63c4.73,0,8.24-1.39,10.52-4.18Z" fill="lime"/>
  <path d="M117.07,6.15h2.53l13.18,84.9h.63l14.32-84.9h4.69l14.07,84.9h.76l13.05-84.9h2.66l-13.69,88.7h-4.56l-14.45-85.02h-.63l-14.45,85.02h-4.43L117.07,6.15Z" fill="lime"/>
  <path d="M10.54,105.77h23.28c4.37,0,7.97.78,10.79,2.33,2.82,1.55,4.89,3.98,6.22,7.27,1.33,3.29,2,7.54,2,12.73v20.4c0,5.11-.67,9.34-2,12.67-1.33,3.34-3.39,5.78-6.18,7.33-2.79,1.55-6.34,2.33-10.64,2.33h-17.8v-6.05h17.42c4.44,0,7.58-1.2,9.44-3.61,1.86-2.41,2.79-6.31,2.79-11.72v-22.3c0-5.34-.95-9.22-2.84-11.63-1.89-2.41-5.05-3.61-9.49-3.61h-16.35v82.55h-6.65v-88.7Z" fill="lime"/>
  <path d="M98.24,184.49c2.46-3.21,3.69-8.15,3.69-14.83v-38.96c0-6.76-1.24-11.74-3.71-14.95-2.47-3.21-6.34-4.82-11.59-4.82h-1.11c-5.3,0-9.22,1.61-11.77,4.83-2.55,3.22-3.82,8.2-3.82,14.94v38.96c0,6.74,1.27,11.7,3.82,14.87,2.54,3.18,6.47,4.77,11.77,4.77h1.11c5.28,0,9.15-1.6,11.61-4.82ZM73.02,192.59c-3.31-1.93-5.79-4.85-7.44-8.76-1.66-3.91-2.49-8.83-2.49-14.76v-37.76c0-6.02.83-10.98,2.49-14.89,1.66-3.91,4.14-6.83,7.44-8.76,3.31-1.93,7.44-2.9,12.4-2.9h1.33c4.94,0,9.03.98,12.28,2.95,3.24,1.96,5.7,4.88,7.37,8.76,1.67,3.88,2.5,8.82,2.5,14.84v37.76c0,5.93-.84,10.84-2.5,14.71-1.67,3.88-4.12,6.8-7.37,8.76-3.24,1.96-7.33,2.95-12.28,2.95h-1.33c-4.96,0-9.1-.97-12.4-2.9Z" fill="lime"/>
  <path d="M318.62,192.64c-3.15-1.9-5.51-4.76-7.1-8.58-1.58-3.82-2.38-8.58-2.38-14.29v-39.28c0-5.77.79-10.54,2.38-14.33,1.58-3.79,3.95-6.64,7.1-8.54,3.15-1.9,7.19-2.85,12.13-2.85h1.36c4.56,0,8.33.91,11.29,2.72,2.97,1.82,5.19,4.39,6.68,7.73,1.49,3.34,2.23,7.24,2.23,11.72v15.21h-4.91v-15.52c0-3.48-.54-6.51-1.62-9.09-1.08-2.58-2.74-4.57-4.99-5.99-2.25-1.41-5.17-2.12-8.76-2.12h-1.27c-5.72,0-9.95,1.7-12.67,5.1-2.73,3.4-4.09,8.62-4.09,15.65v39.91c0,7.03,1.36,12.25,4.09,15.65,2.72,3.4,6.95,5.1,12.67,5.1h1.27c3.59,0,6.51-.71,8.76-2.12,2.25-1.41,3.91-3.41,4.99-5.99,1.08-2.58,1.62-5.61,1.62-9.09v-11.56h4.91v11.25c0,4.5-.75,8.41-2.23,11.74-1.49,3.33-3.72,5.9-6.68,7.71-2.97,1.82-6.73,2.72-11.29,2.72h-1.36c-4.94,0-8.99-.95-12.13-2.85Z" fill="lime"/>
  <path d="M378.63,156.97h4.47v37.51h-4.47v-37.51ZM359.56,105.77h4.78l14.79,49.86h3.45l14.89-49.86h4.81l-16.47,54.46h-9.82l-16.44-54.46Z" fill="lime"/>
  <path d="M418.42,192.62c-3.13-1.91-5.46-4.76-7-8.55-1.54-3.79-2.31-8.49-2.31-14.11v-39.66c0-5.72.77-10.46,2.31-14.21,1.54-3.75,3.87-6.57,7-8.47,3.12-1.9,7.15-2.85,12.07-2.85h1.3c4.52,0,8.25.91,11.2,2.72,2.95,1.82,5.15,4.37,6.6,7.65,1.46,3.29,2.19,7.1,2.19,11.45v15.17h-4.02v-15.36c0-3.57-.56-6.68-1.68-9.34-1.12-2.66-2.85-4.73-5.2-6.21-2.34-1.48-5.38-2.22-9.09-2.22h-1.33c-5.96,0-10.35,1.77-13.18,5.31-2.83,3.54-4.25,8.92-4.25,16.14v40.07c0,7.27,1.41,12.66,4.25,16.19,2.83,3.53,7.22,5.29,13.18,5.29h1.33c3.72,0,6.75-.74,9.11-2.22,2.35-1.48,4.09-3.55,5.2-6.21,1.11-2.66,1.66-5.78,1.66-9.35v-11.28h4.02v11.09c0,4.35-.73,8.17-2.19,11.45-1.46,3.29-3.66,5.83-6.6,7.65-2.95,1.82-6.68,2.72-11.2,2.72h-1.3c-4.92,0-8.95-.96-12.07-2.87Z" fill="lime"/>
  <path d="M551.59,192.95c-2.79-1.6-4.86-3.95-6.21-7.03-1.35-3.08-2.03-6.86-2.03-11.34v-10.52h2.53v10.39c0,4.14.61,7.54,1.84,10.2,1.22,2.66,3.02,4.69,5.38,6.08,2.36,1.39,5.32,2.09,8.87,2.09h1.77c5.07,0,8.93-1.31,11.59-3.93,2.66-2.62,3.99-6.5,3.99-11.66v-.76c0-4.73-.76-8.62-2.28-11.66s-3.42-5.51-5.7-7.41c-2.28-1.9-5.32-3.84-9-6.02-4.01-2.38-7.14-4.67-9.5-6.65-2.37-1.98-4.37-4.71-6.02-8.17-1.65-3.46-2.47-7.9-2.47-13.3v-.38c0-3.97.65-7.29,1.96-9.95,1.31-2.66,3.23-4.67,5.77-6.02,2.53-1.35,5.66-2.03,9.38-2.03h1.9c3.88,0,7.16.78,9.82,2.34,2.66,1.56,4.65,3.86,5.96,6.91,1.31,3.04,1.96,6.8,1.96,11.28v12.16h-2.66v-12.16c0-3.88-.57-7.18-1.71-9.88-1.14-2.7-2.83-4.73-5.07-6.08-2.24-1.35-5-2.03-8.3-2.03h-1.9c-4.65,0-8.22,1.29-10.71,3.86-2.49,2.58-3.74,6.4-3.74,11.47v.51c0,4.9.76,8.96,2.28,12.16,1.52,3.21,3.42,5.79,5.7,7.73,2.28,1.94,5.28,4.01,9,6.21,3.97,2.37,7.14,4.52,9.5,6.46,2.36,1.94,4.37,4.6,6.02,7.98,1.65,3.38,2.47,7.65,2.47,12.8v.63c0,3.97-.72,7.31-2.15,10.01-1.44,2.7-3.51,4.73-6.21,6.08-2.7,1.35-6,2.03-9.88,2.03h-1.9c-4.05,0-7.48-.8-10.26-2.41Z" fill="lime"/>
  <path d="M197.56,150.98h26.29v5.39h-26.29v-5.39ZM225.25,111.19h-24.33v77.87h24.33v5.42h-30.06v-88.7h30.06v5.42Z" fill="lime"/>
  <path d="M505.36,152.09h26.58v3.04h-26.58v-3.04ZM533.12,108.82h-25.66v82.62h25.66v3.04h-28.64v-88.7h28.64v3.04Z" fill="lime"/>
  <polygon points="465.1 105.77 468.59 105.77 468.59 190.99 494.18 190.99 494.18 194.47 465.1 194.47 465.1 105.77" fill="lime"/>
  <path d="M267.07,147.75c2.04-2.47,3.06-6.39,3.06-11.75v-10.07c0-5.17-1.02-9.02-3.06-11.55-2.04-2.52-5.16-3.79-9.36-3.79h-15.97v83.88h-5.29v-88.7h21.73c5.83,0,10.21,1.65,13.15,4.96,2.93,3.31,4.4,8.25,4.4,14.84v9.69c0,4.86-.89,8.81-2.68,11.86-1.79,3.05-4.27,5.01-7.46,5.88v.73c2.98.8,5.18,2.46,6.6,4.97,1.43,2.51,2.14,5.9,2.14,10.17v14.76c0,2.41.28,4.05.85,4.93.57.88,1.77,1.65,3.52,1.31.65-.12,1.36-.16,2.12-.22v4.91c-.42.1-.91.17-1.46.19-.55.02-1.09.03-1.62.03-2.26,0-4.02-.35-5.29-1.05-1.27-.7-2.2-1.79-2.79-3.28-.59-1.49-.89-3.52-.89-6.1v-15.81c0-4.46-.89-7.66-2.68-9.61-1.79-1.95-4.58-2.93-8.38-2.93h-16.85v-4.56h16.82c4.2,0,7.32-1.24,9.36-3.71Z" fill="lime"/>
  <polygon points="116.02 105.77 122.29 105.77 133.29 185.29 134.11 185.29 146.21 105.77 153.94 105.77 165.82 185.29 166.77 185.29 177.64 105.77 184 105.77 171.36 194.47 162.37 194.47 150.36 119.84 149.57 119.84 137.6 194.47 128.69 194.47 116.02 105.77" fill="lime"/>
  <path d="M9.15,205.4h24.27c4.6,0,8.42.81,11.44,2.44,3.02,1.63,5.27,4.21,6.75,7.76,1.48,3.55,2.22,8.19,2.22,13.94v19.13c0,5.66-.74,10.29-2.22,13.88-1.48,3.59-3.72,6.2-6.72,7.82-3,1.63-6.78,2.44-11.34,2.44h-14.95v-9.57h14.19c3.55,0,6.08-.99,7.6-2.98,1.52-1.98,2.28-5.22,2.28-9.69v-22.94c0-4.43-.77-7.64-2.31-9.63-1.54-1.98-4.09-2.98-7.63-2.98h-12.8v79.07h-10.77v-88.7Z" fill="lime"/>
  <path d="M95.97,281.49c1.96-2.62,2.95-6.76,2.95-12.42v-38.52c0-5.74-.99-9.93-2.98-12.54-1.99-2.62-5.11-3.93-9.38-3.93h-1.08c-4.27,0-7.42,1.32-9.47,3.96-2.05,2.64-3.07,6.81-3.07,12.51v38.52c0,5.7,1.02,9.85,3.07,12.45,2.05,2.6,5.21,3.9,9.47,3.9h1.08c4.31,0,7.44-1.31,9.41-3.93ZM72.34,292.23c-3.44-1.92-6.04-4.89-7.79-8.9-1.75-4.01-2.63-9.17-2.63-15.46v-36.11c0-6.38.88-11.57,2.63-15.59,1.75-4.01,4.35-6.98,7.79-8.9,3.44-1.92,7.76-2.88,12.96-2.88h1.52c5.15,0,9.43.97,12.83,2.91,3.4,1.94,5.99,4.91,7.76,8.9,1.77,3.99,2.66,9.18,2.66,15.55v36.11c0,6.29-.89,11.44-2.66,15.43-1.78,3.99-4.36,6.96-7.76,8.9-3.4,1.94-7.68,2.91-12.83,2.91h-1.52c-5.2,0-9.51-.96-12.96-2.88Z" fill="lime"/>
  <path d="M318.24,292.26c-3.21-1.9-5.64-4.79-7.29-8.68-1.65-3.88-2.47-8.78-2.47-14.7v-38.27c0-5.96.82-10.86,2.47-14.73,1.65-3.86,4.07-6.75,7.29-8.65,3.21-1.9,7.35-2.85,12.42-2.85h1.46c4.65,0,8.5.91,11.56,2.72,3.06,1.82,5.36,4.46,6.91,7.92,1.54,3.46,2.31,7.6,2.31,12.42v15.21h-7.16v-15.84c0-3.25-.49-6.06-1.46-8.43-.97-2.36-2.46-4.18-4.47-5.45-2.01-1.27-4.61-1.9-7.82-1.9h-1.27c-5.11,0-8.89,1.54-11.34,4.62-2.45,3.08-3.68,7.86-3.68,14.32v39.53c0,6.46,1.23,11.24,3.68,14.32,2.45,3.08,6.23,4.62,11.34,4.62h1.27c3.21,0,5.82-.63,7.82-1.9,2.01-1.27,3.49-3.08,4.47-5.45.97-2.37,1.46-5.17,1.46-8.43v-12.23h7.16v11.59c0,4.86-.77,9.01-2.31,12.45-1.54,3.44-3.84,6.07-6.91,7.89-3.06,1.82-6.92,2.72-11.56,2.72h-1.46c-5.07,0-9.21-.95-12.42-2.85Z" fill="lime"/>
  <path d="M377.68,256.46h6.27v37.63h-6.27v-37.63ZM359.05,205.4h6.78l13.37,49.04h3.23l13.56-49.04h6.72l-15.84,55.56h-12.04l-15.78-55.56Z" fill="lime"/>
  <path d="M418.16,292.23c-3.17-1.92-5.53-4.79-7.1-8.62-1.56-3.82-2.34-8.6-2.34-14.35v-39.03c0-5.87.78-10.7,2.34-14.48,1.56-3.78,3.93-6.62,7.1-8.52,3.17-1.9,7.26-2.85,12.29-2.85h1.33c4.56,0,8.35.91,11.37,2.72,3.02,1.82,5.27,4.4,6.75,7.76,1.48,3.36,2.22,7.32,2.22,11.88v15.14h-5.39v-15.52c0-3.42-.53-6.4-1.58-8.93-1.06-2.53-2.68-4.5-4.88-5.89-2.2-1.39-5.03-2.09-8.49-2.09h-1.39c-5.58,0-9.69,1.68-12.35,5.04-2.66,3.36-3.99,8.46-3.99,15.3v39.85c0,6.93,1.33,12.06,3.99,15.4,2.66,3.34,6.78,5.01,12.35,5.01h1.39c3.46,0,6.3-.7,8.52-2.09,2.22-1.39,3.84-3.36,4.88-5.89,1.03-2.53,1.55-5.51,1.55-8.93v-11.66h5.39v11.28c0,4.56-.74,8.52-2.22,11.88-1.48,3.36-3.73,5.95-6.75,7.76-3.02,1.82-6.81,2.72-11.37,2.72h-1.33c-5.03,0-9.12-.96-12.29-2.88Z" fill="lime"/>
  <path d="M551.59,292.58c-2.79-1.6-4.86-3.95-6.21-7.03-1.35-3.08-2.03-6.86-2.03-11.34v-10.52h2.53v10.39c0,4.14.61,7.54,1.84,10.2,1.22,2.66,3.02,4.69,5.38,6.08,2.36,1.39,5.32,2.09,8.87,2.09h1.77c5.07,0,8.93-1.31,11.59-3.93,2.66-2.62,3.99-6.5,3.99-11.66v-.76c0-4.73-.76-8.62-2.28-11.66s-3.42-5.51-5.7-7.41c-2.28-1.9-5.32-3.84-9-6.02-4.01-2.38-7.14-4.67-9.5-6.65-2.37-1.98-4.37-4.71-6.02-8.17-1.65-3.46-2.47-7.9-2.47-13.3v-.38c0-3.97.65-7.29,1.96-9.95,1.31-2.66,3.23-4.67,5.77-6.02,2.53-1.35,5.66-2.03,9.38-2.03h1.9c3.88,0,7.16.78,9.82,2.34,2.66,1.56,4.65,3.86,5.96,6.91,1.31,3.04,1.96,6.8,1.96,11.28v12.16h-2.66v-12.16c0-3.88-.57-7.18-1.71-9.88-1.14-2.7-2.83-4.73-5.07-6.08-2.24-1.35-5-2.03-8.3-2.03h-1.9c-4.65,0-8.22,1.29-10.71,3.86-2.49,2.58-3.74,6.4-3.74,11.47v.51c0,4.9.76,8.96,2.28,12.16,1.52,3.21,3.42,5.79,5.7,7.73,2.28,1.94,5.28,4.01,9,6.21,3.97,2.37,7.14,4.52,9.5,6.46,2.36,1.94,4.37,4.6,6.02,7.98,1.65,3.38,2.47,7.65,2.47,12.8v.63c0,3.97-.72,7.31-2.15,10.01-1.44,2.7-3.51,4.73-6.21,6.08-2.7,1.35-6,2.03-9.88,2.03h-1.9c-4.05,0-7.48-.8-10.26-2.41Z" fill="lime"/>
  <path d="M198.23,249.3h25.98v8.11h-25.98v-8.11ZM225.85,213.57h-22.81v72.35h22.81v8.17h-31.74v-88.7h31.74v8.17Z" fill="lime"/>
  <path d="M505.46,251.52h26.55v3.42h-26.55v-3.42ZM533.21,208.82h-25.47v81.86h25.47v3.42h-28.89v-88.7h28.89v3.42Z" fill="lime"/>
  <polygon points="464.75 205.4 469.19 205.4 469.19 289.79 494.28 289.79 494.28 294.1 464.75 294.1 464.75 205.4" fill="lime"/>
  <path d="M265.69,247.28c1.79-2.15,2.69-5.59,2.69-10.33v-10.9c0-4.6-.9-8.01-2.69-10.23-1.8-2.22-4.53-3.33-8.2-3.33h-13.94v81.6h-8.05v-88.7h23.06c6.08,0,10.64,1.66,13.69,4.97,3.04,3.32,4.56,8.31,4.56,14.98v10.01c0,4.73-.88,8.59-2.63,11.56-1.75,2.98-4.21,4.91-7.38,5.8v.82c2.91.85,5.06,2.49,6.43,4.94,1.37,2.45,2.06,5.75,2.06,9.88v13.3c0,2.11.27,3.56.82,4.34.55.78,1.61,1.47,3.1,1.17.63-.12,1.33-.15,2.09-.19v7.16c-.59.13-1.25.21-1.96.25-.72.04-1.44.06-2.15.06-2.58,0-4.58-.38-6.02-1.14-1.44-.76-2.49-1.95-3.17-3.58-.68-1.63-1.01-3.87-1.01-6.75v-15.27c0-3.84-.75-6.6-2.25-8.27-1.5-1.67-3.85-2.5-7.06-2.5h-15.21v-6.46h15.02c3.67,0,6.41-1.08,8.2-3.23Z" fill="lime"/>
  <polygon points="114.98 205.4 124.99 205.4 133.79 279.53 134.81 279.53 144.69 205.4 155.46 205.4 165.16 279.53 166.3 279.53 174.98 205.4 185.05 205.4 173.46 294.1 160.02 294.1 150.46 229.85 149.51 229.85 140 294.1 126.63 294.1 114.98 205.4" fill="lime"/>
  <path d="M7.75,305.02h25.25c4.84,0,8.86.85,12.09,2.55,3.22,1.7,5.64,4.45,7.27,8.25,1.63,3.8,2.44,8.85,2.44,15.14v17.87c0,6.21-.81,11.24-2.44,15.08-1.63,3.84-4.04,6.62-7.25,8.32-3.21,1.7-7.22,2.55-12.04,2.55h-12.1v-13.08h10.96c2.66,0,4.58-.78,5.77-2.34,1.18-1.56,1.77-4.12,1.77-7.67v-23.57c0-3.53-.6-6.07-1.79-7.63-1.19-1.56-3.12-2.34-5.78-2.34h-9.25v75.58H7.75v-88.7Z" fill="lime"/>
  <path d="M93.71,378.48c1.47-2.03,2.2-5.36,2.2-10.01v-38.08c0-4.73-.75-8.11-2.25-10.14-1.5-2.03-3.89-3.04-7.16-3.04h-1.05c-3.23,0-5.62,1.03-7.17,3.09-1.55,2.06-2.33,5.42-2.33,10.09v38.08c0,4.67.77,8.01,2.33,10.03,1.55,2.02,3.94,3.03,7.17,3.03h1.05c3.34,0,5.74-1.01,7.21-3.04ZM71.66,391.87c-3.58-1.91-6.29-4.92-8.14-9.04-1.85-4.12-2.77-9.5-2.77-16.16v-34.47c0-6.74.92-12.16,2.77-16.28,1.85-4.12,4.56-7.13,8.14-9.04,3.58-1.91,8.08-2.87,13.51-2.87h1.71c5.36,0,9.82.96,13.38,2.88,3.56,1.92,6.28,4.94,8.16,9.04,1.88,4.11,2.82,9.53,2.82,16.27v34.47c0,6.65-.94,12.03-2.82,16.14-1.88,4.11-4.6,7.12-8.16,9.04-3.56,1.92-8.02,2.88-13.38,2.88h-1.71c-5.43,0-9.93-.96-13.51-2.87Z" fill="lime"/>
  <path d="M317.86,391.88c-3.27-1.9-5.76-4.82-7.48-8.78-1.71-3.95-2.57-8.99-2.57-15.11v-37.25c0-6.15.86-11.19,2.57-15.13,1.71-3.94,4.2-6.86,7.48-8.76,3.27-1.9,7.51-2.85,12.7-2.85h1.55c4.73,0,8.67.91,11.83,2.72,3.16,1.82,5.53,4.52,7.13,8.11,1.59,3.59,2.39,7.96,2.39,13.11v15.21h-9.41v-16.16c0-3.02-.43-5.61-1.3-7.76-.87-2.15-2.18-3.79-3.94-4.91-1.76-1.12-4.06-1.68-6.89-1.68h-1.27c-4.5,0-7.84,1.38-10.01,4.15-2.18,2.77-3.26,7.1-3.26,12.99v39.15c0,5.89,1.09,10.22,3.26,12.99,2.17,2.77,5.51,4.15,10.01,4.15h1.27c2.83,0,5.13-.56,6.89-1.68,1.76-1.12,3.08-2.75,3.94-4.91.87-2.15,1.3-4.74,1.3-7.76v-12.89h9.41v11.94c0,5.22-.8,9.6-2.39,13.16-1.59,3.56-3.97,6.25-7.13,8.06-3.16,1.82-7.1,2.72-11.83,2.72h-1.55c-5.19,0-9.43-.95-12.7-2.85Z" fill="lime"/>
  <path d="M376.73,355.96h8.08v37.76h-8.08v-37.76ZM358.55,305.02h8.77l11.94,48.21h3.01l12.23-48.21h8.62l-15.21,56.67h-14.26l-15.11-56.67Z" fill="lime"/>
  <path d="M417.91,391.84c-3.21-1.93-5.61-4.82-7.19-8.68-1.58-3.85-2.38-8.72-2.38-14.59v-38.39c0-6.02.79-10.93,2.38-14.75,1.58-3.81,3.98-6.67,7.19-8.57,3.21-1.9,7.38-2.85,12.51-2.85h1.36c4.6,0,8.45.91,11.55,2.72,3.09,1.82,5.39,4.44,6.89,7.87,1.5,3.43,2.25,7.53,2.25,12.31v15.11h-6.75v-15.68c0-3.27-.5-6.11-1.49-8.52-.99-2.41-2.51-4.27-4.56-5.58-2.05-1.31-4.68-1.96-7.89-1.96h-1.46c-5.2,0-9.04,1.59-11.53,4.77-2.49,3.18-3.74,8-3.74,14.46v39.63c0,6.59,1.25,11.46,3.74,14.6,2.49,3.15,6.34,4.72,11.53,4.72h1.46c3.21,0,5.85-.65,7.94-1.96,2.08-1.31,3.6-3.17,4.56-5.58.96-2.41,1.44-5.25,1.44-8.52v-12.04h6.75v11.47c0,4.77-.75,8.88-2.25,12.31-1.5,3.43-3.8,6.06-6.89,7.87-3.09,1.82-6.94,2.72-11.55,2.72h-1.36c-5.13,0-9.3-.97-12.51-2.9Z" fill="lime"/>
  <path d="M551.59,392.2c-2.79-1.6-4.86-3.95-6.21-7.03-1.35-3.08-2.03-6.86-2.03-11.34v-10.52h2.53v10.39c0,4.14.61,7.54,1.84,10.2,1.22,2.66,3.02,4.69,5.38,6.08,2.36,1.39,5.32,2.09,8.87,2.09h1.77c5.07,0,8.93-1.31,11.59-3.93,2.66-2.62,3.99-6.5,3.99-11.66v-.76c0-4.73-.76-8.62-2.28-11.66s-3.42-5.51-5.7-7.41c-2.28-1.9-5.32-3.84-9-6.02-4.01-2.38-7.14-4.67-9.5-6.65-2.37-1.98-4.37-4.71-6.02-8.17-1.65-3.46-2.47-7.9-2.47-13.3v-.38c0-3.97.65-7.29,1.96-9.95,1.31-2.66,3.23-4.67,5.77-6.02,2.53-1.35,5.66-2.03,9.38-2.03h1.9c3.88,0,7.16.78,9.82,2.34,2.66,1.56,4.65,3.86,5.96,6.91,1.31,3.04,1.96,6.8,1.96,11.28v12.16h-2.66v-12.16c0-3.88-.57-7.18-1.71-9.88-1.14-2.7-2.83-4.73-5.07-6.08-2.24-1.35-5-2.03-8.3-2.03h-1.9c-4.65,0-8.22,1.29-10.71,3.86-2.49,2.58-3.74,6.4-3.74,11.47v.51c0,4.9.76,8.96,2.28,12.16,1.52,3.21,3.42,5.79,5.7,7.73,2.28,1.94,5.28,4.01,9,6.21,3.97,2.37,7.14,4.52,9.5,6.46,2.36,1.94,4.37,4.6,6.02,7.98,1.65,3.38,2.47,7.65,2.47,12.8v.63c0,3.97-.72,7.31-2.15,10.01-1.44,2.7-3.51,4.73-6.21,6.08-2.7,1.35-6,2.03-9.88,2.03h-1.9c-4.05,0-7.48-.8-10.26-2.41Z" fill="lime"/>
  <path d="M198.89,347.63h25.66v10.83h-25.66v-10.83ZM226.45,315.95h-21.29v66.84h21.29v10.93h-33.42v-88.7h33.42v10.93Z" fill="lime"/>
  <path d="M505.56,350.95h26.51v3.8h-26.51v-3.8ZM533.31,308.82h-25.28v81.1h25.28v3.8h-29.14v-88.7h29.14v3.8Z" fill="lime"/>
  <polygon points="464.41 305.02 469.79 305.02 469.79 388.59 494.37 388.59 494.37 393.72 464.41 393.72 464.41 305.02" fill="lime"/>
  <path d="M264.32,346.8c1.55-1.84,2.33-4.8,2.33-8.9v-11.72c0-4.03-.78-7.01-2.33-8.92-1.55-1.91-3.9-2.87-7.05-2.87h-11.91v79.32h-10.8v-88.7h24.39c6.34,0,11.08,1.66,14.22,4.99,3.15,3.33,4.72,8.37,4.72,15.13v10.33c0,4.61-.86,8.36-2.58,11.26-1.72,2.91-4.16,4.81-7.3,5.72v.92c2.85.89,4.94,2.52,6.26,4.91,1.32,2.39,1.98,5.59,1.98,9.6v11.85c0,1.82.26,3.07.79,3.75.53.69,1.45,1.29,2.69,1.03.6-.12,1.3-.14,2.06-.16v9.41c-.76.15-1.58.25-2.47.32-.89.06-1.79.09-2.69.09-2.9,0-5.14-.41-6.75-1.24-1.6-.82-2.79-2.12-3.55-3.88-.76-1.76-1.14-4.23-1.14-7.4v-14.73c0-3.23-.61-5.54-1.82-6.92-1.22-1.38-3.13-2.08-5.75-2.08h-13.56v-8.36h13.21c3.15,0,5.49-.92,7.05-2.76Z" fill="lime"/>
  <polygon points="113.93 305.02 127.68 305.02 134.3 373.76 135.5 373.76 143.17 305.02 156.98 305.02 164.49 373.76 165.82 373.76 172.31 305.02 186.1 305.02 175.55 393.72 157.68 393.72 150.55 339.87 149.44 339.87 142.41 393.72 124.58 393.72 113.93 305.02" fill="lime"/>
  <path d="M6.36,404.64h26.23c5.07,0,9.31.89,12.73,2.66s6.02,4.69,7.79,8.74c1.77,4.05,2.66,9.5,2.66,16.35v16.6c0,6.76-.89,12.19-2.66,16.28-1.77,4.1-4.37,7.03-7.79,8.81-3.42,1.77-7.67,2.66-12.73,2.66h-9.25v-16.6h7.73c1.77,0,3.08-.57,3.93-1.71.84-1.14,1.27-3.02,1.27-5.64v-24.2c0-2.62-.42-4.5-1.27-5.64-.85-1.14-2.15-1.71-3.93-1.71h-5.7v72.1H6.36v-88.7Z" fill="lime"/>
  <path d="M70.98,491.51c-3.72-1.9-6.55-4.96-8.49-9.19-1.94-4.22-2.92-9.84-2.92-16.85v-32.82c0-7.1.97-12.75,2.92-16.98,1.94-4.22,4.77-7.29,8.49-9.19,3.72-1.9,8.41-2.85,14.07-2.85h1.9c5.58,0,10.22.95,13.94,2.85,3.72,1.9,6.57,4.96,8.55,9.19,1.98,4.23,2.98,9.88,2.98,16.98v32.82c0,7.01-.99,12.63-2.98,16.85-1.99,4.23-4.84,7.29-8.55,9.19-3.72,1.9-8.36,2.85-13.94,2.85h-1.9c-5.66,0-10.35-.95-14.07-2.85ZM91.44,475.48c.97-1.44,1.46-3.97,1.46-7.6v-37.63c0-3.72-.51-6.29-1.52-7.73-1.01-1.44-2.66-2.15-4.94-2.15h-1.01c-2.2,0-3.82.74-4.88,2.22-1.06,1.48-1.58,4.04-1.58,7.67v37.63c0,3.63.53,6.17,1.58,7.6,1.05,1.44,2.68,2.15,4.88,2.15h1.01c2.36,0,4.03-.72,5.01-2.15Z" fill="lime"/>
  <path d="M317.48,491.51c-3.34-1.9-5.89-4.86-7.67-8.87-1.77-4.01-2.66-9.19-2.66-15.52v-36.24c0-6.34.89-11.51,2.66-15.52,1.77-4.01,4.33-6.97,7.67-8.87,3.34-1.9,7.67-2.85,12.99-2.85h1.65c4.82,0,8.85.91,12.1,2.72,3.25,1.82,5.7,4.58,7.35,8.3,1.65,3.72,2.47,8.32,2.47,13.81v15.21h-11.66v-16.47c0-2.79-.38-5.15-1.14-7.1-.76-1.94-1.9-3.4-3.42-4.37-1.52-.97-3.51-1.46-5.96-1.46h-1.27c-3.89,0-6.78,1.23-8.68,3.67-1.9,2.45-2.85,6.34-2.85,11.66v38.77c0,5.32.95,9.21,2.85,11.66,1.9,2.45,4.79,3.67,8.68,3.67h1.27c2.45,0,4.43-.48,5.96-1.46,1.52-.97,2.66-2.43,3.42-4.37.76-1.94,1.14-4.31,1.14-7.1v-13.56h11.66v12.29c0,5.58-.82,10.2-2.47,13.88-1.65,3.67-4.1,6.42-7.35,8.24-3.25,1.82-7.29,2.72-12.1,2.72h-1.65c-5.32,0-9.65-.95-12.99-2.85Z" fill="lime"/>
  <path d="M358.04,404.64h10.77l10.52,47.39h2.79l10.9-47.39h10.52l-14.57,57.78h-16.47l-14.45-57.78ZM375.78,455.46h9.88v37.89h-9.88v-37.89Z" fill="lime"/>
  <path d="M417.66,491.44c-3.25-1.94-5.68-4.86-7.29-8.74-1.61-3.88-2.41-8.83-2.41-14.83v-37.76c0-6.17.8-11.17,2.41-15.02,1.6-3.84,4.03-6.72,7.29-8.62,3.25-1.9,7.5-2.85,12.74-2.85h1.39c4.64,0,8.55.91,11.72,2.72,3.17,1.82,5.51,4.48,7.03,7.98,1.52,3.51,2.28,7.75,2.28,12.73v15.08h-8.11v-15.84c0-3.12-.46-5.83-1.39-8.11-.93-2.28-2.34-4.03-4.25-5.26-1.9-1.22-4.33-1.84-7.29-1.84h-1.52c-4.82,0-8.38,1.5-10.71,4.5-2.32,3-3.49,7.54-3.49,13.62v39.41c0,6.25,1.16,10.86,3.49,13.81,2.32,2.96,5.89,4.44,10.71,4.44h1.52c2.96,0,5.41-.61,7.35-1.84,1.94-1.22,3.36-2.98,4.25-5.26.89-2.28,1.33-4.98,1.33-8.11v-12.42h8.11v11.66c0,4.99-.76,9.23-2.28,12.73-1.52,3.51-3.87,6.17-7.03,7.98-3.17,1.82-7.08,2.72-11.72,2.72h-1.39c-5.24,0-9.48-.97-12.74-2.91Z" fill="lime"/>
  <path d="M551.59,491.82c-2.79-1.6-4.86-3.95-6.21-7.03-1.35-3.08-2.03-6.86-2.03-11.34v-10.52h2.53v10.39c0,4.14.61,7.54,1.84,10.2,1.22,2.66,3.02,4.69,5.38,6.08,2.36,1.39,5.32,2.09,8.87,2.09h1.77c5.07,0,8.93-1.31,11.59-3.93,2.66-2.62,3.99-6.5,3.99-11.66v-.76c0-4.73-.76-8.62-2.28-11.66s-3.42-5.51-5.7-7.41c-2.28-1.9-5.28-3.91-9-6.02-3.97-2.45-7.14-4.67-9.5-6.65-2.37-1.98-4.37-4.71-6.02-8.17-1.65-3.46-2.47-7.9-2.47-13.3v-.38c0-3.97.65-7.29,1.96-9.95,1.31-2.66,3.23-4.67,5.77-6.02,2.53-1.35,5.66-2.03,9.38-2.03h1.9c3.88,0,7.16.78,9.82,2.34,2.66,1.56,4.65,3.86,5.96,6.91,1.31,3.04,1.96,6.8,1.96,11.28v12.16h-2.66v-12.16c0-3.88-.57-7.18-1.71-9.88-1.14-2.7-2.83-4.73-5.07-6.08-2.24-1.35-5-2.03-8.3-2.03h-1.9c-4.65,0-8.22,1.29-10.71,3.86-2.49,2.58-3.74,6.4-3.74,11.47v.51c0,4.9.76,8.96,2.28,12.16,1.52,3.21,3.42,5.79,5.7,7.73,2.28,1.94,5.28,4.01,9,6.21,3.97,2.37,7.14,4.52,9.5,6.46,2.36,1.94,4.37,4.6,6.02,7.98,1.65,3.38,2.47,7.65,2.47,12.8v.63c0,3.97-.72,7.31-2.15,10.01-1.44,2.7-3.51,4.73-6.21,6.08-2.7,1.35-6,2.03-9.88,2.03h-1.9c-4.05,0-7.48-.8-10.26-2.41Z" fill="lime"/>
  <path d="M227.06,418.33h-19.77v61.33h19.77v13.69h-35.1v-88.7h35.1v13.69ZM199.56,445.95h25.34v13.56h-25.34v-13.56Z" fill="lime"/>
  <path d="M533.4,408.83h-25.09v80.34h25.09v4.18h-29.4v-88.7h29.4v4.18ZM505.65,450.39h26.48v4.18h-26.48v-4.18Z" fill="lime"/>
  <path d="M464.06,404.64h6.34v82.74h24.08v5.96h-30.41v-88.7Z" fill="lime"/>
  <path d="M262.94,446.33c1.31-1.52,1.96-4.01,1.96-7.48v-12.54c0-3.46-.66-6-1.96-7.6-1.31-1.6-3.27-2.41-5.89-2.41h-9.88v77.04h-13.56v-88.7h25.72c6.59,0,11.51,1.67,14.76,5.01,3.25,3.34,4.88,8.43,4.88,15.27v10.64c0,4.48-.85,8.13-2.53,10.96-1.69,2.83-4.1,4.71-7.22,5.64v1.01c2.79.93,4.82,2.56,6.08,4.88,1.27,2.32,1.9,5.43,1.9,9.31v10.39c0,1.52.25,2.58.76,3.17.51.59,1.27.89,2.28.89.59-.08,1.27-.13,2.03-.13v11.66c-.93.17-1.92.29-2.98.38-1.06.08-2.13.13-3.23.13-3.21,0-5.7-.44-7.48-1.33s-3.08-2.28-3.93-4.18c-.85-1.9-1.27-4.58-1.27-8.05v-14.19c0-2.62-.46-4.48-1.39-5.58-.93-1.1-2.41-1.65-4.43-1.65h-11.91v-10.26h11.4c2.62,0,4.58-.76,5.89-2.28Z" fill="lime"/>
  <path d="M112.89,404.64h17.49l4.44,63.36h1.39l5.45-63.36h16.85l5.32,63.36h1.52l4.31-63.36h17.49l-9.5,88.7h-22.3l-4.69-43.46h-1.27l-4.56,43.46h-22.3l-9.63-88.7Z" fill="lime"/>
  <path d="M7.25,503.74h25.66c4.88,0,8.97.86,12.26,2.58,3.29,1.72,5.78,4.53,7.44,8.41,1.67,3.89,2.5,9.08,2.5,15.59v17.42c0,6.38-.84,11.53-2.5,15.46-1.67,3.93-4.15,6.75-7.43,8.47-3.28,1.72-7.38,2.58-12.28,2.58h-11.18v-14.22h9.92c2.36,0,4.08-.71,5.15-2.14,1.07-1.43,1.6-3.75,1.6-6.99v-23.76c0-3.23-.54-5.56-1.63-6.99-1.09-1.43-2.79-2.14-5.12-2.14h-8.11v74.41H7.25v-88.7Z" fill="lime"/>
  <path d="M92.45,575.73c1.18-1.7,1.77-4.59,1.77-8.66v-37.82c0-4.16-.61-7.09-1.84-8.79-1.23-1.7-3.2-2.55-5.92-2.55h-1.01c-2.66,0-4.64.87-5.92,2.6-1.29,1.73-1.93,4.65-1.93,8.74v37.82c0,4.1.64,6.99,1.93,8.68,1.29,1.69,3.26,2.53,5.92,2.53h1.01c2.81,0,4.8-.85,5.99-2.55ZM71.29,590.59c-3.65-1.91-6.44-4.96-8.35-9.14-1.91-4.18-2.87-9.69-2.87-16.54v-33.52c0-6.93.95-12.48,2.87-16.66,1.91-4.18,4.69-7.23,8.35-9.14,3.65-1.91,8.26-2.87,13.81-2.87h1.81c5.49,0,10.06.96,13.7,2.87,3.64,1.91,6.44,4.96,8.38,9.14,1.94,4.18,2.91,9.74,2.91,16.66v33.52c0,6.84-.97,12.36-2.9,16.54-1.93,4.18-4.73,7.23-8.38,9.14-3.65,1.91-8.23,2.87-13.72,2.87h-1.81c-5.55,0-10.16-.96-13.81-2.87Z" fill="lime"/>
  <path d="M317.17,590.61c-3.4-1.9-6-4.88-7.81-8.95-1.81-4.06-2.71-9.35-2.71-15.85v-35.39c0-6.53.9-11.82,2.71-15.89,1.81-4.06,4.41-7.05,7.81-8.95,3.4-1.9,7.79-2.85,13.18-2.85h1.74c4.92,0,9.04.91,12.35,2.72,3.31,1.82,5.82,4.63,7.52,8.44,1.7,3.81,2.55,8.62,2.55,14.43v15.14h-13.5v-16.69c0-2.62-.33-4.81-1-6.59-.66-1.77-1.66-3.09-2.99-3.94-1.33-.85-3.08-1.28-5.26-1.28h-1.24c-3.4,0-5.94,1.1-7.6,3.29-1.67,2.2-2.5,5.73-2.5,10.61v38.49c0,4.86.83,8.38,2.5,10.58,1.67,2.2,4.2,3.29,7.6,3.29h1.24c2.17,0,3.93-.43,5.26-1.28,1.33-.85,2.33-2.17,2.99-3.94.67-1.77,1-3.97,1-6.59v-14.1h13.5v12.54c0,5.87-.85,10.7-2.55,14.48-1.7,3.78-4.21,6.58-7.52,8.4-3.32,1.82-7.43,2.72-12.35,2.72h-1.74c-5.38,0-9.78-.95-13.18-2.85Z" fill="lime"/>
  <path d="M374.83,554.43h11.72v38.01h-11.72v-38.01ZM357.53,503.74h12.7l9.16,46.6h2.53l9.57-46.6h12.45l-13.94,58.89h-18.63l-13.84-58.89Z" fill="lime"/>
  <path d="M417.36,590.54c-3.31-1.94-5.78-4.88-7.43-8.82-1.65-3.94-2.47-8.99-2.47-15.16v-36.94c0-6.31.82-11.42,2.47-15.33,1.65-3.91,4.12-6.81,7.43-8.71,3.3-1.9,7.61-2.85,12.91-2.85h1.49c4.75,0,8.74.91,11.97,2.72,3.23,1.82,5.63,4.53,7.21,8.13,1.57,3.6,2.36,8.05,2.36,13.35v15.02h-9.95v-16.06c0-2.98-.42-5.52-1.25-7.62-.84-2.1-2.11-3.71-3.83-4.82-1.72-1.11-3.92-1.66-6.6-1.66h-1.43c-4.35,0-7.57,1.37-9.66,4.1-2.09,2.74-3.14,6.93-3.14,12.59v39.12c0,5.79,1.05,10.03,3.15,12.73,2.1,2.7,5.32,4.06,9.65,4.06h1.43c2.7,0,4.93-.55,6.67-1.66,1.74-1.11,3.01-2.72,3.82-4.83.8-2.11,1.2-4.65,1.2-7.6v-12.96h9.95v11.91c0,5.3-.79,9.75-2.36,13.35-1.57,3.6-3.98,6.31-7.21,8.13-3.23,1.82-7.22,2.72-11.97,2.72h-1.49c-5.3,0-9.61-.97-12.91-2.91Z" fill="lime"/>
  <path d="M551.51,590.94c-2.8-1.59-4.88-3.94-6.24-7.05-1.36-3.1-2.04-6.91-2.04-11.4v-10.52h3.01v10.49c0,4.06.59,7.38,1.77,9.96,1.18,2.59,2.94,4.56,5.27,5.92,2.33,1.36,5.23,2.04,8.7,2.04h1.77c4.96,0,8.74-1.28,11.34-3.83,2.6-2.55,3.9-6.36,3.9-11.4v-.98c0-4.65-.75-8.46-2.25-11.44-1.5-2.98-3.37-5.4-5.62-7.25-2.25-1.86-5.24-3.78-8.89-5.92-4.01-2.37-7.14-4.63-9.52-6.61-2.38-1.97-4.39-4.68-6.04-8.11-1.65-3.43-2.47-7.84-2.47-13.23v-.6c0-4.03.66-7.39,1.98-10.06,1.32-2.67,3.26-4.69,5.81-6.05,2.55-1.36,5.72-2.04,9.5-2.04h1.84c3.95,0,7.26.78,9.93,2.34,2.67,1.56,4.67,3.86,5.99,6.91,1.32,3.04,1.98,6.83,1.98,11.37v12.1h-3.14v-12.23c0-3.8-.55-7.02-1.65-9.65-1.1-2.63-2.75-4.6-4.96-5.92-2.21-1.32-4.93-1.98-8.16-1.98h-1.84c-4.56,0-8.06,1.26-10.5,3.77-2.44,2.51-3.66,6.25-3.66,11.21v.76c0,4.82.75,8.79,2.25,11.93,1.5,3.14,3.38,5.65,5.64,7.56,2.26,1.9,5.22,3.93,8.87,6.08,3.97,2.34,7.14,4.48,9.5,6.41,2.36,1.93,4.38,4.58,6.03,7.95,1.66,3.37,2.49,7.62,2.49,12.75v.79c0,4.06-.72,7.44-2.15,10.15-1.44,2.71-3.52,4.75-6.24,6.11-2.73,1.36-6.05,2.04-9.98,2.04h-1.87c-4.12,0-7.58-.8-10.37-2.39Z" fill="lime"/>
  <path d="M199.62,544.9h25.31v13.91h-25.31v-13.91ZM227.18,517.81h-19.58v60.57h19.58v14.07h-35.38v-88.7h35.38v14.07Z" fill="lime"/>
  <path d="M505.84,549.14h26.39v4.97h-26.39v-4.97ZM533.59,508.72h-24.68v78.75h24.68v4.97h-29.94v-88.7h29.94v4.97Z" fill="lime"/>
  <polygon points="463.61 503.74 471.28 503.74 471.28 585.32 494.66 585.32 494.66 592.44 463.61 592.44 463.61 503.74" fill="lime"/>
  <path d="M262.26,545.4c1.17-1.37,1.76-3.63,1.76-6.78v-12.96c0-3.17-.59-5.48-1.76-6.94-1.17-1.46-2.95-2.19-5.34-2.19h-8.84v75.9h-14.92v-88.7h26.32c6.74,0,11.76,1.67,15.06,5.01,3.3,3.34,4.96,8.46,4.96,15.36v10.8c0,4.37-.85,7.96-2.53,10.75-1.69,2.8-4.08,4.67-7.16,5.62v1.08c2.75.97,4.74,2.6,5.99,4.88,1.25,2.28,1.87,5.33,1.87,9.16v9.66c0,1.37.24,2.34.71,2.88.48.55,1.2,1.02,2.11.82.58-.12,1.26-.13,2-.13v12.83c-.99.17-2.07.29-3.22.38-1.15.08-2.32.13-3.5.13-3.36,0-5.97-.46-7.84-1.38-1.87-.92-3.24-2.37-4.12-4.34-.88-1.97-1.31-4.76-1.31-8.35v-14c0-2.28-.4-3.89-1.19-4.83-.79-.94-2.05-1.41-3.79-1.41h-11.09v-11.21h10.49c2.39,0,4.16-.69,5.34-2.06Z" fill="lime"/>
  <polygon points="113.04 503.74 130.02 503.74 134.71 567.77 136.14 567.77 141.84 503.74 158.31 503.74 163.89 567.77 165.41 567.77 170 503.74 186.98 503.74 177.42 592.44 155.65 592.44 150.65 547.68 149.38 547.68 144.5 592.44 122.77 592.44 113.04 503.74" fill="lime"/>
  <path d="M8.13,602.85h25.09c4.69,0,8.62.83,11.78,2.5,3.17,1.67,5.53,4.36,7.1,8.08,1.56,3.72,2.34,8.66,2.34,14.83v18.25c0,6-.78,10.88-2.34,14.64-1.56,3.76-3.92,6.47-7.06,8.14-3.15,1.67-7.09,2.5-11.82,2.5h-13.12v-11.85h12.1c2.96,0,5.08-.86,6.37-2.57,1.29-1.71,1.93-4.49,1.93-8.33v-23.32c0-3.84-.67-6.62-2-8.33-1.33-1.71-3.43-2.57-6.3-2.57h-10.52v76.73h-13.56v-88.7Z" fill="lime"/>
  <path d="M93.47,675.99c1.39-1.96,2.09-5.21,2.09-9.73v-38.01c0-4.6-.72-7.89-2.15-9.85-1.44-1.96-3.74-2.95-6.91-2.95h-1.01c-3.13,0-5.45.99-6.97,2.98-1.52,1.99-2.28,5.26-2.28,9.82v38.01c0,4.56.76,7.81,2.28,9.76,1.52,1.94,3.84,2.91,6.97,2.91h1.01c3.25,0,5.57-.98,6.97-2.95ZM71.61,689.68c-3.59-1.92-6.33-4.95-8.2-9.09-1.88-4.14-2.82-9.55-2.82-16.22v-34.21c0-6.76.94-12.21,2.82-16.35,1.88-4.14,4.61-7.17,8.2-9.09,3.59-1.92,8.11-2.88,13.56-2.88h1.71c5.41,0,9.89.96,13.46,2.88,3.57,1.92,6.3,4.95,8.21,9.09,1.9,4.14,2.85,9.59,2.85,16.35v34.21c0,6.67-.94,12.08-2.82,16.22-1.88,4.14-4.62,7.17-8.21,9.09-3.59,1.92-8.09,2.88-13.49,2.88h-1.71c-5.45,0-9.97-.96-13.56-2.88Z" fill="lime"/>
  <path d="M316.85,689.71c-3.46-1.9-6.11-4.91-7.95-9.03-1.84-4.12-2.76-9.51-2.76-16.19v-34.53c0-6.72.92-12.13,2.76-16.25,1.84-4.12,4.49-7.13,7.95-9.03,3.46-1.9,7.92-2.85,13.37-2.85h1.84c5.03,0,9.23.91,12.61,2.72,3.38,1.82,5.94,4.68,7.7,8.58,1.75,3.91,2.63,8.92,2.63,15.05v15.08h-15.33v-16.92c0-2.45-.29-4.48-.86-6.08-.57-1.6-1.43-2.78-2.57-3.52-1.14-.74-2.66-1.11-4.56-1.11h-1.2c-2.92,0-5.09.97-6.53,2.91-1.44,1.94-2.15,5.13-2.15,9.57v38.2c0,4.39.72,7.56,2.15,9.5,1.44,1.94,3.61,2.91,6.53,2.91h1.2c1.9,0,3.42-.37,4.56-1.11,1.14-.74,2-1.91,2.57-3.52.57-1.6.86-3.63.86-6.08v-14.64h15.33v12.8c0,6.17-.88,11.19-2.63,15.08-1.75,3.89-4.32,6.74-7.7,8.55-3.38,1.82-7.58,2.72-12.61,2.72h-1.84c-5.45,0-9.9-.95-13.37-2.85Z" fill="lime"/>
  <path d="M373.88,653.4h13.56v38.14h-13.56v-38.14ZM357.03,602.85h14.64l7.79,45.81h2.28l8.24-45.81h14.38l-13.31,60h-20.78l-13.24-60Z" fill="lime"/>
  <path d="M417.06,689.65c-3.36-1.94-5.88-4.91-7.57-8.9-1.69-3.99-2.53-9.15-2.53-15.49v-36.11c0-6.46.84-11.68,2.53-15.65,1.69-3.97,4.21-6.91,7.57-8.81,3.36-1.9,7.72-2.85,13.08-2.85h1.58c4.86,0,8.93.91,12.23,2.72,3.29,1.82,5.75,4.57,7.38,8.27,1.63,3.7,2.44,8.35,2.44,13.97v14.95h-11.78v-16.28c0-2.83-.37-5.2-1.11-7.13-.74-1.92-1.88-3.38-3.42-4.37-1.54-.99-3.52-1.49-5.92-1.49h-1.33c-3.89,0-6.76,1.24-8.62,3.71-1.86,2.47-2.79,6.33-2.79,11.56v38.84c0,5.32.94,9.21,2.82,11.66,1.88,2.45,4.74,3.68,8.58,3.68h1.33c2.45,0,4.44-.5,5.99-1.49,1.54-.99,2.67-2.46,3.39-4.4.72-1.94,1.08-4.31,1.08-7.1v-13.5h11.78v12.16c0,5.62-.81,10.28-2.44,13.97-1.63,3.7-4.09,6.45-7.38,8.27-3.29,1.82-7.37,2.72-12.23,2.72h-1.58c-5.37,0-9.73-.97-13.08-2.91Z" fill="lime"/>
  <path d="M551.43,690.06c-2.81-1.58-4.9-3.94-6.27-7.06-1.37-3.13-2.06-6.95-2.06-11.47v-10.52h3.48v10.58c0,3.97.57,7.21,1.71,9.73,1.14,2.51,2.86,4.44,5.16,5.77,2.3,1.33,5.14,2,8.52,2h1.77c4.86,0,8.55-1.25,11.09-3.74,2.53-2.49,3.8-6.21,3.8-11.15v-1.2c0-4.56-.74-8.3-2.22-11.21-1.48-2.91-3.33-5.28-5.54-7.1-2.22-1.82-5.17-3.71-8.78-5.83-4-2.35-7.15-4.59-9.53-6.56-2.39-1.96-4.4-4.64-6.05-8.05-1.65-3.4-2.47-7.78-2.47-13.15v-.82c0-4.1.66-7.49,2-10.17,1.33-2.68,3.28-4.71,5.86-6.08,2.58-1.37,5.79-2.06,9.63-2.06h1.77c4.01,0,7.36.78,10.04,2.34,2.68,1.56,4.69,3.86,6.02,6.91,1.33,3.04,2,6.86,2,11.47v12.04h-3.61v-12.29c0-3.72-.53-6.85-1.58-9.41-1.06-2.55-2.67-4.48-4.85-5.77-2.18-1.29-4.85-1.93-8.02-1.93h-1.77c-4.48,0-7.91,1.23-10.3,3.68-2.39,2.45-3.58,6.1-3.58,10.96v1.01c0,4.73.74,8.63,2.22,11.69,1.48,3.06,3.34,5.52,5.58,7.38,2.24,1.86,5.15,3.84,8.74,5.96,3.97,2.32,7.14,4.45,9.5,6.37,2.36,1.92,4.38,4.56,6.05,7.92,1.67,3.36,2.5,7.59,2.5,12.7v.95c0,4.14-.72,7.57-2.15,10.3-1.44,2.73-3.53,4.77-6.27,6.15-2.75,1.37-6.1,2.06-10.07,2.06h-1.84c-4.18,0-7.68-.79-10.49-2.38Z" fill="lime"/>
  <path d="M199.69,643.84h25.28v14.26h-25.28v-14.26ZM227.31,617.29h-19.39v59.81h19.39v14.45h-35.67v-88.7h35.67v14.45Z" fill="lime"/>
  <path d="M506.03,647.89h26.29v5.77h-26.29v-5.77ZM533.78,608.61h-24.27v77.17h24.27v5.77h-30.47v-88.7h30.47v5.77Z" fill="lime"/>
  <polygon points="463.17 602.85 472.17 602.85 472.17 683.25 494.85 683.25 494.85 691.55 463.17 691.55 463.17 602.85" fill="lime"/>
  <path d="M261.58,644.47c1.03-1.22,1.55-3.25,1.55-6.08v-13.37c0-2.87-.52-4.96-1.55-6.27-1.04-1.31-2.63-1.96-4.78-1.96h-7.79v74.76h-16.28v-88.7h26.93c6.88,0,12.01,1.67,15.36,5.01,3.36,3.34,5.04,8.49,5.04,15.46v10.96c0,4.27-.85,7.78-2.53,10.55-1.69,2.77-4.06,4.64-7.1,5.61v1.14c2.7,1.01,4.67,2.64,5.89,4.88,1.23,2.24,1.84,5.24,1.84,9v8.93c0,1.23.22,2.09.67,2.6.44.51,1.11.94,1.93.76.58-.12,1.25-.13,1.96-.13v14c-1.06.17-2.21.29-3.45.38-1.25.08-2.5.13-3.77.13-3.51,0-6.24-.48-8.21-1.43-1.96-.95-3.4-2.45-4.31-4.5-.91-2.05-1.36-4.93-1.36-8.65v-13.81c0-1.94-.33-3.3-.98-4.09-.66-.78-1.7-1.17-3.14-1.17h-10.26v-12.16h9.57c2.15,0,3.75-.61,4.78-1.84Z" fill="lime"/>
  <polygon points="113.2 602.85 129.68 602.85 134.62 667.53 136.07 667.53 142.03 602.85 158.12 602.85 163.95 667.53 165.47 667.53 170.35 602.85 186.82 602.85 177.19 691.55 155.97 691.55 150.65 645.49 149.38 645.49 144.18 691.55 123.02 691.55 113.2 602.85" fill="lime"/>
  <path d="M9.02,701.95h24.52c4.5,0,8.27.81,11.31,2.42,3.04,1.62,5.29,4.2,6.75,7.75,1.46,3.55,2.19,8.24,2.19,14.07v19.07c0,5.62-.73,10.22-2.19,13.81-1.46,3.59-3.69,6.19-6.7,7.81-3.01,1.62-6.8,2.42-11.36,2.42h-15.05v-9.47h14.29c3.55,0,6.08-1,7.59-2.99,1.51-2,2.26-5.22,2.26-9.68v-22.87c0-4.46-.79-7.68-2.36-9.68-1.57-2-4.07-2.99-7.49-2.99h-12.92v79.04h-10.83v-88.7Z" fill="lime"/>
  <path d="M94.48,776.25c1.6-2.23,2.41-5.82,2.41-10.79v-38.2c0-5.05-.82-8.68-2.47-10.91-1.65-2.23-4.28-3.34-7.89-3.34h-1.01c-3.59,0-6.26,1.12-8.01,3.36-1.75,2.24-2.63,5.87-2.63,10.9v38.2c0,5.03.88,8.64,2.63,10.83,1.75,2.2,4.42,3.29,8.01,3.29h1.01c3.69,0,6.35-1.11,7.95-3.34ZM71.93,788.76c-3.53-1.93-6.22-4.95-8.06-9.04-1.85-4.1-2.77-9.4-2.77-15.9v-34.91c0-6.59.92-11.93,2.77-16.03,1.85-4.1,4.53-7.11,8.06-9.04,3.53-1.93,7.96-2.9,13.31-2.9h1.62c5.32,0,9.73.97,13.23,2.9,3.5,1.93,6.17,4.95,8.03,9.04,1.86,4.1,2.79,9.44,2.79,16.03v34.91c0,6.51-.91,11.81-2.74,15.9-1.83,4.1-4.5,7.11-8.03,9.04-3.53,1.93-7.95,2.9-13.27,2.9h-1.62c-5.34,0-9.78-.97-13.31-2.9Z" fill="lime"/>
  <path d="M316.53,788.81c-3.53-1.9-6.22-4.94-8.09-9.11-1.87-4.17-2.8-9.68-2.8-16.52v-33.67c0-6.91.93-12.44,2.8-16.62,1.87-4.17,4.57-7.21,8.09-9.11,3.53-1.9,8.05-2.85,13.56-2.85h1.93c5.13,0,9.42.91,12.86,2.72,3.44,1.82,6.07,4.73,7.87,8.73,1.8,4,2.71,9.22,2.71,15.67v15.02h-17.17v-17.14c0-2.28-.24-4.14-.71-5.58-.47-1.44-1.19-2.47-2.14-3.09-.95-.62-2.24-.93-3.86-.93h-1.17c-2.43,0-4.25.85-5.45,2.53-1.2,1.69-1.81,4.53-1.81,8.52v37.92c0,3.93.6,6.74,1.81,8.43,1.2,1.69,3.02,2.53,5.45,2.53h1.17c1.63,0,2.91-.31,3.86-.93.95-.62,1.66-1.65,2.14-3.09.48-1.44.71-3.29.71-5.58v-15.17h17.17v13.05c0,6.46-.9,11.69-2.71,15.68-1.81,3.99-4.43,6.9-7.87,8.71-3.44,1.82-7.73,2.72-12.86,2.72h-1.93c-5.51,0-10.03-.95-13.56-2.85Z" fill="lime"/>
  <path d="M372.93,752.38h15.4v38.27h-15.4v-38.27ZM356.52,701.95h16.57l6.43,45.01h2.03l6.91-45.01h16.31l-12.67,61.11h-22.93l-12.64-61.11Z" fill="lime"/>
  <path d="M416.75,788.75c-3.41-1.94-5.98-4.94-7.71-8.98-1.73-4.04-2.6-9.32-2.6-15.82v-35.29c0-6.61.87-11.93,2.6-15.97,1.73-4.03,4.3-7,7.71-8.9,3.41-1.9,7.83-2.85,13.26-2.85h1.68c4.96,0,9.12.91,12.48,2.72,3.36,1.82,5.88,4.62,7.56,8.41,1.68,3.79,2.52,8.65,2.52,14.59v14.89h-13.62v-16.5c0-2.68-.32-4.89-.97-6.64-.65-1.74-1.65-3.05-3.01-3.93-1.36-.88-3.11-1.31-5.24-1.31h-1.24c-3.42,0-5.95,1.1-7.57,3.31-1.63,2.21-2.44,5.72-2.44,10.53v38.55c0,4.86.83,8.39,2.49,10.58,1.66,2.2,4.16,3.3,7.52,3.3h1.24c2.2,0,3.96-.44,5.31-1.31,1.34-.88,2.33-2.2,2.96-3.98.63-1.77.95-3.97.95-6.59v-14.03h13.62v12.42c0,5.94-.84,10.8-2.52,14.59-1.68,3.79-4.2,6.59-7.56,8.41-3.36,1.82-7.52,2.72-12.48,2.72h-1.68c-5.43,0-9.85-.97-13.26-2.91Z" fill="lime"/>
  <path d="M551.36,789.17c-2.82-1.57-4.92-3.93-6.3-7.08-1.38-3.15-2.07-6.99-2.07-11.53v-10.52h3.96v10.68c0,3.89.55,7.05,1.65,9.49,1.1,2.44,2.78,4.31,5.05,5.61,2.27,1.3,5.05,1.95,8.35,1.95h1.77c4.75,0,8.36-1.21,10.83-3.64,2.47-2.43,3.71-6.06,3.71-10.9v-1.43c0-4.48-.73-8.14-2.19-10.99-1.46-2.85-3.28-5.16-5.46-6.94-2.19-1.77-5.1-3.65-8.66-5.73-4-2.34-7.15-4.56-9.55-6.51-2.4-1.95-4.42-4.61-6.07-7.98-1.65-3.37-2.47-7.72-2.47-13.07v-1.05c0-4.16.67-7.59,2.01-10.28,1.34-2.69,3.31-4.73,5.91-6.11,2.6-1.38,5.85-2.07,9.76-2.07h1.71c4.08,0,7.46.78,10.15,2.34,2.69,1.56,4.71,3.86,6.05,6.91,1.34,3.04,2.01,6.9,2.01,11.56v11.97h-4.09v-12.35c0-3.63-.51-6.69-1.52-9.17-1.01-2.48-2.59-4.35-4.74-5.61-2.14-1.26-4.77-1.89-7.87-1.89h-1.71c-4.39,0-7.76,1.19-10.09,3.58-2.33,2.39-3.5,5.96-3.5,10.71v1.27c0,4.65.73,8.46,2.19,11.45,1.46,2.99,3.29,5.39,5.51,7.21,2.22,1.82,5.08,3.77,8.62,5.83,3.96,2.31,7.14,4.41,9.5,6.32,2.36,1.91,4.39,4.54,6.07,7.89,1.68,3.35,2.52,7.57,2.52,12.66v1.11c0,4.22-.72,7.7-2.15,10.44-1.44,2.74-3.54,4.79-6.3,6.18-2.77,1.38-6.16,2.08-10.17,2.08h-1.81c-4.25,0-7.78-.79-10.6-2.36Z" fill="lime"/>
  <path d="M199.75,742.78h25.25v14.6h-25.25v-14.6ZM227.44,716.77h-19.2v59.05h19.2v14.83h-35.96v-88.7h35.96v14.83Z" fill="lime"/>
  <path d="M506.22,746.65h26.2v6.56h-26.2v-6.56ZM533.97,708.5h-23.85v75.58h23.85v6.56h-31.01v-88.7h31.01v6.56Z" fill="lime"/>
  <polygon points="462.73 701.95 473.05 701.95 473.05 781.18 495.04 781.18 495.04 790.65 462.73 790.65 462.73 701.95" fill="lime"/>
  <path d="M260.89,743.54c.9-1.08,1.35-2.87,1.35-5.39v-13.78c0-2.58-.45-4.45-1.35-5.61-.9-1.16-2.31-1.74-4.23-1.74h-6.75v73.62h-17.65v-88.7h27.53c7.03,0,12.25,1.67,15.67,5.01,3.41,3.34,5.12,8.52,5.12,15.55v11.12c0,4.16-.85,7.61-2.53,10.34-1.69,2.74-4.03,4.6-7.03,5.59v1.2c2.66,1.06,4.59,2.68,5.8,4.88,1.2,2.2,1.81,5.14,1.81,8.84v8.2c0,1.08.21,1.85.62,2.31.41.47,1.01.86,1.76.7.58-.12,1.23-.13,1.93-.13v15.17c-1.12.17-2.35.29-3.69.38-1.34.08-2.69.13-4.04.13-3.65,0-6.51-.49-8.57-1.47-2.06-.98-3.56-2.53-4.5-4.66-.94-2.12-1.41-5.1-1.41-8.95v-13.62c0-1.6-.26-2.72-.78-3.34-.52-.62-1.35-.93-2.49-.93h-9.44v-13.11h8.65c1.92,0,3.33-.54,4.23-1.62Z" fill="lime"/>
  <polygon points="113.36 701.95 129.33 701.95 134.52 767.3 136.01 767.3 142.22 701.95 157.93 701.95 164.01 767.3 165.54 767.3 170.7 701.95 186.67 701.95 176.97 790.65 156.29 790.65 150.65 743.29 149.38 743.29 143.87 790.65 123.28 790.65 113.36 701.95" fill="lime"/>
  <path d="M9.91,801.05h23.95c4.31,0,7.92.78,10.83,2.34,2.92,1.56,5.05,4.04,6.4,7.41,1.35,3.38,2.03,7.81,2.03,13.3v19.89c0,5.24-.68,9.57-2.03,12.99-1.35,3.42-3.46,5.91-6.34,7.48-2.87,1.56-6.51,2.34-10.9,2.34h-16.98v-7.1h16.47c4.14,0,7.07-1.14,8.81-3.42,1.73-2.28,2.6-5.96,2.6-11.02v-22.43c0-5.07-.91-8.74-2.72-11.02-1.82-2.28-4.71-3.42-8.68-3.42h-15.33v81.35h-8.11v-88.7Z" fill="lime"/>
  <path d="M72.24,887.85c-3.46-1.94-6.1-4.94-7.92-9-1.82-4.05-2.72-9.25-2.72-15.59v-35.61c0-6.42.91-11.66,2.72-15.71,1.82-4.06,4.46-7.05,7.92-9,3.46-1.94,7.81-2.91,13.05-2.91h1.52c5.24,0,9.57.97,12.99,2.91,3.42,1.94,6.04,4.94,7.86,9,1.82,4.05,2.72,9.29,2.72,15.71v35.61c0,6.34-.89,11.53-2.66,15.59-1.77,4.05-4.39,7.05-7.86,9-3.46,1.94-7.81,2.91-13.05,2.91h-1.52c-5.24,0-9.59-.97-13.05-2.91ZM95.5,876.51c1.82-2.49,2.72-6.44,2.72-11.85v-38.39c0-5.49-.93-9.48-2.79-11.97-1.86-2.49-4.82-3.74-8.87-3.74h-1.01c-4.05,0-7.08,1.25-9.06,3.74-1.99,2.49-2.98,6.48-2.98,11.97v38.39c0,5.49.99,9.46,2.98,11.91,1.98,2.45,5,3.67,9.06,3.67h1.01c4.14,0,7.12-1.25,8.93-3.74Z" fill="lime"/>
  <path d="M316.22,887.91c-3.59-1.9-6.34-4.96-8.24-9.19-1.9-4.22-2.85-9.84-2.85-16.85v-32.82c0-7.1.95-12.75,2.85-16.98,1.9-4.22,4.64-7.29,8.24-9.19,3.59-1.9,8.17-2.85,13.75-2.85h2.03c5.24,0,9.61.91,13.12,2.72,3.5,1.82,6.19,4.77,8.05,8.87,1.86,4.1,2.79,9.53,2.79,16.28v14.95h-19.01v-17.36c0-2.11-.19-3.8-.57-5.07-.38-1.27-.95-2.15-1.71-2.66-.76-.51-1.82-.76-3.17-.76h-1.14c-1.94,0-3.4.72-4.37,2.15-.97,1.44-1.46,3.93-1.46,7.48v37.63c0,3.46.49,5.91,1.46,7.35.97,1.44,2.43,2.15,4.37,2.15h1.14c1.35,0,2.41-.25,3.17-.76.76-.51,1.33-1.39,1.71-2.66.38-1.27.57-2.96.57-5.07v-15.71h19.01v13.3c0,6.76-.93,12.19-2.79,16.28-1.86,4.1-4.54,7.05-8.05,8.87-3.51,1.82-7.88,2.72-13.12,2.72h-2.03c-5.58,0-10.16-.95-13.75-2.85Z" fill="lime"/>
  <path d="M356.01,801.05h18.5l5.07,44.22h1.77l5.58-44.22h18.25l-12.04,62.22h-25.09l-12.04-62.22ZM371.98,851.35h17.23v38.39h-17.23v-38.39Z" fill="lime"/>
  <path d="M416.45,887.85c-3.46-1.94-6.08-4.96-7.86-9.06-1.77-4.1-2.66-9.48-2.66-16.16v-34.47c0-6.76.89-12.18,2.66-16.28,1.77-4.1,4.39-7.1,7.86-9,3.46-1.9,7.94-2.85,13.43-2.85h1.77c5.07,0,9.31.91,12.74,2.72,3.42,1.82,6,4.67,7.73,8.55,1.73,3.89,2.6,8.96,2.6,15.21v14.83h-15.46v-16.73c0-2.53-.28-4.58-.82-6.15-.55-1.56-1.42-2.72-2.6-3.48-1.18-.76-2.7-1.14-4.56-1.14h-1.14c-2.96,0-5.13.97-6.53,2.91-1.39,1.94-2.09,5.11-2.09,9.5v38.27c0,4.39.72,7.56,2.15,9.5,1.44,1.94,3.59,2.92,6.46,2.92h1.14c1.94,0,3.48-.38,4.62-1.14s1.98-1.94,2.53-3.55c.55-1.6.82-3.63.82-6.08v-14.57h15.46v12.67c0,6.25-.87,11.32-2.6,15.21-1.73,3.89-4.31,6.74-7.73,8.55-3.42,1.82-7.67,2.72-12.74,2.72h-1.77c-5.49,0-9.97-.97-13.43-2.91Z" fill="lime"/>
  <path d="M551.28,888.29c-2.83-1.56-4.94-3.93-6.34-7.1-1.39-3.17-2.09-7.03-2.09-11.59v-10.52h4.43v10.77c0,3.8.53,6.89,1.58,9.25,1.06,2.37,2.7,4.18,4.94,5.45,2.24,1.27,4.96,1.9,8.17,1.9h1.77c4.64,0,8.17-1.18,10.58-3.55,2.41-2.36,3.61-5.91,3.61-10.64v-1.65c0-4.39-.72-7.98-2.15-10.77-1.44-2.79-3.23-5.05-5.38-6.78-2.15-1.73-5.01-3.61-8.55-5.64-3.97-2.36-7.16-4.52-9.57-6.46-2.41-1.94-4.44-4.58-6.08-7.92-1.65-3.34-2.47-7.67-2.47-12.99v-1.27c0-4.22.68-7.69,2.03-10.39,1.35-2.7,3.34-4.75,5.96-6.15,2.62-1.39,5.91-2.09,9.88-2.09h1.65c4.14,0,7.56.78,10.26,2.34,2.7,1.56,4.73,3.86,6.08,6.91,1.35,3.04,2.03,6.93,2.03,11.66v11.91h-4.56v-12.42c0-3.55-.49-6.53-1.46-8.93-.97-2.41-2.51-4.22-4.62-5.45-2.11-1.22-4.69-1.84-7.73-1.84h-1.65c-4.31,0-7.6,1.16-9.88,3.49-2.28,2.32-3.42,5.81-3.42,10.45v1.52c0,4.56.72,8.3,2.15,11.21,1.44,2.91,3.25,5.26,5.45,7.03,2.2,1.77,5.02,3.67,8.49,5.7,3.97,2.28,7.14,4.37,9.5,6.27,2.36,1.9,4.39,4.52,6.08,7.86,1.69,3.34,2.53,7.54,2.53,12.61v1.27c0,4.31-.72,7.84-2.15,10.58-1.44,2.75-3.55,4.82-6.33,6.21-2.79,1.39-6.21,2.09-10.26,2.09h-1.77c-4.31,0-7.88-.78-10.71-2.34Z" fill="lime"/>
  <path d="M227.56,816.25h-19.01v58.29h19.01v15.21h-36.24v-88.7h36.24v15.21ZM199.81,841.72h25.22v14.95h-25.22v-14.95Z" fill="lime"/>
  <path d="M534.16,808.4h-23.44v74h23.44v7.35h-31.55v-88.7h31.55v7.35ZM506.41,845.4h26.1v7.35h-26.1v-7.35Z" fill="lime"/>
  <path d="M462.28,801.05h11.66v78.06h21.29v10.64h-32.95v-88.7Z" fill="lime"/>
  <path d="M260.21,842.61c.76-.93,1.14-2.49,1.14-4.69v-14.19c0-2.28-.38-3.93-1.14-4.94-.76-1.01-1.99-1.52-3.67-1.52h-5.7v72.48h-19.01v-88.7h28.13c7.18,0,12.5,1.67,15.97,5,3.46,3.34,5.2,8.55,5.2,15.65v11.28c0,4.05-.85,7.43-2.53,10.14-1.69,2.71-4.01,4.56-6.97,5.58v1.27c2.62,1.1,4.52,2.72,5.7,4.88,1.18,2.15,1.77,5.05,1.77,8.68v7.48c0,.93.19,1.61.57,2.03.38.42.91.63,1.58.63.59-.08,1.22-.13,1.9-.13v16.35c-1.18.17-2.49.29-3.93.38-1.44.08-2.87.13-4.31.13-3.8,0-6.78-.51-8.93-1.52s-3.72-2.62-4.69-4.82c-.97-2.2-1.46-5.28-1.46-9.25v-13.43c0-1.27-.19-2.13-.57-2.6-.38-.46-.99-.7-1.84-.7h-8.62v-14.06h7.73c1.69,0,2.91-.46,3.67-1.39Z" fill="lime"/>
  <path d="M113.52,801.05h15.46l5.45,66.02h1.52l6.46-66.02h15.33l6.34,66.02h1.52l5.45-66.02h15.46l-9.76,88.7h-20.15l-5.96-48.66h-1.27l-5.83,48.66h-20.02l-10.01-88.7Z" fill="lime"/>
  <path d="M10.81,900.09h23.54c4.27,0,7.82.77,10.66,2.31,2.84,1.54,4.91,3.96,6.23,7.25,1.31,3.3,1.96,7.58,1.96,12.86v20.34c0,5.07-.66,9.27-1.96,12.61-1.31,3.34-3.36,5.78-6.16,7.32-2.8,1.54-6.35,2.31-10.66,2.31h-17.9v-5.96h17.52c4.43,0,7.58-1.21,9.42-3.63,1.85-2.42,2.77-6.32,2.77-11.71v-22.24c0-5.36-.96-9.26-2.88-11.67-1.92-2.42-5.04-3.63-9.34-3.63h-16.47v82.52h-6.72v-88.7Z" fill="lime"/>
  <path d="M96.89,976.72c2.06-2.74,3.09-7.05,3.09-12.92v-38.62c0-5.93-1.05-10.27-3.15-13.02-2.1-2.74-5.39-4.12-9.87-4.12h-1.01c-4.5,0-7.85,1.37-10.06,4.12-2.21,2.75-3.31,7.09-3.31,13.02v38.62c0,5.94,1.1,10.26,3.31,12.97,2.21,2.71,5.56,4.07,10.06,4.07h1.01c4.56,0,7.87-1.37,9.93-4.12ZM72.94,986.89c-3.39-1.94-5.97-4.92-7.75-8.92-1.77-4-2.66-9.11-2.66-15.32v-36.34c0-6.29.89-11.44,2.66-15.43,1.77-3.99,4.36-6.96,7.75-8.9,3.39-1.94,7.66-2.91,12.81-2.91h1.39c5.15,0,9.4.97,12.75,2.91,3.35,1.94,5.91,4.91,7.68,8.9,1.77,3.99,2.66,9.13,2.66,15.43v36.34c0,6.21-.87,11.31-2.61,15.32-1.74,4-4.3,6.98-7.68,8.92-3.38,1.94-7.65,2.91-12.8,2.91h-1.39c-5.15,0-9.43-.97-12.81-2.91Z" fill="lime"/>
  <path d="M316.93,986.95c-3.53-1.9-6.22-4.94-8.09-9.11-1.87-4.17-2.8-9.68-2.8-16.52v-33.67c0-6.91.93-12.44,2.8-16.62,1.87-4.17,4.57-7.21,8.09-9.11,3.53-1.9,8.05-2.85,13.56-2.85h1.93c5.13,0,9.42.91,12.86,2.72,3.44,1.82,6.07,4.73,7.87,8.73,1.8,4,2.71,9.22,2.71,15.67v15.02h-17.17v-17.14c0-2.28-.24-4.14-.71-5.58-.47-1.44-1.19-2.47-2.14-3.09-.95-.62-2.24-.93-3.86-.93h-1.17c-2.43,0-4.25.85-5.45,2.53-1.2,1.69-1.81,4.53-1.81,8.52v37.92c0,3.93.6,6.74,1.81,8.43,1.2,1.69,3.02,2.53,5.45,2.53h1.17c1.63,0,2.91-.31,3.86-.94.95-.62,1.66-1.65,2.14-3.09.48-1.44.71-3.29.71-5.58v-15.17h17.17v13.05c0,6.46-.9,11.69-2.71,15.68-1.81,3.99-4.43,6.9-7.87,8.71-3.44,1.82-7.73,2.72-12.86,2.72h-1.93c-5.51,0-10.03-.95-13.56-2.85Z" fill="lime"/>
  <path d="M372.85,950.46h16.31v38.33h-16.31v-38.33ZM356.66,900.09h17.52l5.77,44.6h1.9l6.24-44.6h17.27l-12.32,61.65h-24.01l-12.35-61.65Z" fill="lime"/>
  <path d="M416.85,986.89c-3.46-1.94-6.08-4.96-7.86-9.06-1.77-4.1-2.66-9.48-2.66-16.16v-34.47c0-6.76.89-12.18,2.66-16.28,1.77-4.1,4.39-7.1,7.86-9,3.46-1.9,7.94-2.85,13.43-2.85h1.77c5.07,0,9.31.91,12.74,2.72,3.42,1.82,6,4.67,7.73,8.55,1.73,3.89,2.6,8.96,2.6,15.21v14.83h-15.46v-16.73c0-2.53-.28-4.58-.82-6.15-.55-1.56-1.42-2.72-2.6-3.48-1.18-.76-2.7-1.14-4.56-1.14h-1.14c-2.96,0-5.13.97-6.53,2.91-1.39,1.94-2.09,5.11-2.09,9.5v38.27c0,4.39.72,7.56,2.15,9.5,1.44,1.94,3.59,2.92,6.46,2.92h1.14c1.94,0,3.48-.38,4.62-1.14s1.98-1.94,2.53-3.55c.55-1.6.82-3.63.82-6.08v-14.57h15.46v12.67c0,6.25-.87,11.32-2.6,15.21-1.73,3.89-4.31,6.74-7.73,8.55-3.42,1.82-7.67,2.72-12.74,2.72h-1.77c-5.49,0-9.97-.97-13.43-2.91Z" fill="lime"/>
  <path d="M551.01,987.35c-2.94-1.51-5.13-3.87-6.59-7.06-1.46-3.2-2.19-7.24-2.19-12.12v-10.49h8.05v11.28c0,3.15.44,5.7,1.31,7.65.88,1.95,2.23,3.45,4.06,4.48,1.83,1.04,4.05,1.55,6.67,1.55h1.71c3.84,0,6.74-.96,8.7-2.88,1.95-1.92,2.93-4.85,2.93-8.77v-3.58c0-3.65-.64-6.65-1.92-8.98-1.28-2.33-2.87-4.23-4.78-5.7-1.91-1.47-4.47-3.06-7.68-4.77-3.93-2.09-7.12-4.04-9.57-5.84-2.45-1.8-4.53-4.34-6.23-7.6-1.7-3.26-2.55-7.54-2.55-12.85v-2.66c0-4.6.72-8.34,2.15-11.21,1.44-2.87,3.55-5.01,6.35-6.41,2.8-1.4,6.34-2.11,10.63-2.11h1.61c4.39,0,8.01.76,10.87,2.27,2.85,1.51,4.99,3.82,6.41,6.94,1.42,3.12,2.14,7.18,2.14,12.18v11.47h-8.17v-12.54c0-2.96-.4-5.42-1.2-7.4-.8-1.97-2.07-3.46-3.8-4.45-1.73-.99-3.83-1.49-6.3-1.49h-1.52c-3.53,0-6.23.95-8.09,2.84-1.87,1.89-2.8,4.75-2.8,8.57v3.52c0,3.82.64,6.95,1.92,9.38,1.28,2.43,2.89,4.39,4.85,5.88,1.95,1.49,4.48,3.14,7.65,4.83,3.9,2.08,7.1,3.92,9.5,5.69,2.41,1.76,4.48,4.28,6.21,7.54,1.73,3.26,2.6,7.44,2.6,12.53v2.66c0,4.73-.75,8.55-2.25,11.45-1.5,2.9-3.71,5.05-6.62,6.43-2.91,1.38-6.56,2.07-10.93,2.07h-1.9c-4.54,0-8.28-.76-11.21-2.26Z" fill="lime"/>
  <path d="M199.77,941.69h25.44v13.05h-25.44v-13.05ZM227.52,913.33h-20.12v62.22h20.12v13.24h-35.07v-88.7h35.07v13.24Z" fill="lime"/>
  <path d="M507.35,943.33h25.85v9.66h-25.85v-9.66ZM535.07,909.82h-22.11v69.25h22.11v9.73h-32.95v-88.7h32.95v9.72Z" fill="lime"/>
  <polygon points="462.24 900.09 475.29 900.09 475.29 976.98 495.82 976.98 495.82 988.79 462.24 988.79 462.24 900.09" fill="lime"/>
  <path d="M261.75,941.7c.97-1.19,1.46-3.14,1.46-5.84v-13.53c0-2.75-.49-4.74-1.46-5.99-.97-1.25-2.51-1.87-4.62-1.87h-7.41v74.32h-16.73v-88.7h27.09c6.93,0,12.08,1.67,15.46,5,3.38,3.34,5.07,8.5,5.07,15.49v11.02c0,4.2-.85,7.68-2.55,10.44-1.7,2.76-4.04,4.63-7.02,5.62v1.2c2.66,1.01,4.6,2.64,5.83,4.86,1.22,2.23,1.84,5.21,1.84,8.95v8.68c0,1.16.21,1.99.63,2.49.42.5,1.06.88,1.9.74.59-.09,1.23-.11,1.93-.13v14.45c-1.08.15-2.25.26-3.53.33-1.28.07-2.56.11-3.85.11-3.55,0-6.33-.49-8.33-1.46-2.01-.97-3.46-2.49-4.37-4.56-.91-2.07-1.36-4.97-1.36-8.71v-13.72c0-1.84-.31-3.11-.92-3.83-.61-.72-1.58-1.08-2.91-1.08h-10.01v-12.51h9.25c2.11,0,3.65-.6,4.62-1.79Z" fill="lime"/>
  <polygon points="114.55 900.09 127.7 900.09 134.51 969.5 135.87 969.5 143.76 900.09 157.19 900.09 164.92 969.5 166.31 969.5 173.09 900.09 186.27 900.09 175.82 988.79 158.46 988.79 150.98 933.64 149.81 933.64 142.49 988.79 125.2 988.79 114.55 900.09" fill="lime"/>
  <path d="M11.72,999.14h23.12c4.22,0,7.72.76,10.49,2.28,2.77,1.52,4.78,3.89,6.05,7.1,1.27,3.21,1.9,7.35,1.9,12.42v20.78c0,4.9-.63,8.98-1.9,12.23-1.27,3.25-3.26,5.64-5.99,7.16-2.73,1.52-6.2,2.28-10.42,2.28h-18.82v-4.81h18.56c4.73,0,8.08-1.28,10.04-3.83,1.96-2.56,2.95-6.68,2.95-12.39v-22.05c0-5.66-1.02-9.77-3.04-12.32-2.03-2.56-5.36-3.83-10.01-3.83h-17.61v83.69h-5.32v-88.7Z" fill="lime"/>
  <path d="M98.29,1076.94c2.3-3,3.45-7.67,3.45-14v-38.84c0-6.38-1.17-11.07-3.52-14.07-2.35-3-5.97-4.5-10.87-4.5h-1.01c-4.94,0-8.63,1.5-11.06,4.5-2.43,3-3.64,7.69-3.64,14.07v38.84c0,6.38,1.21,11.06,3.64,14.03,2.43,2.98,6.11,4.47,11.06,4.47h1.01c4.98,0,8.63-1.5,10.93-4.5ZM73.64,1085.93c-3.32-1.94-5.84-4.89-7.57-8.84-1.73-3.95-2.6-8.96-2.6-15.05v-37.06c0-6.17.87-11.21,2.6-15.14,1.73-3.93,4.26-6.86,7.57-8.81,3.32-1.94,7.51-2.91,12.58-2.91h1.27c5.07,0,9.24.97,12.51,2.91,3.27,1.94,5.78,4.88,7.51,8.81,1.73,3.93,2.6,8.98,2.6,15.14v37.06c0,6.08-.85,11.1-2.57,15.05-1.71,3.95-4.21,6.9-7.51,8.84-3.3,1.94-7.48,2.91-12.54,2.91h-1.27c-5.07,0-9.26-.97-12.58-2.91Z" fill="lime"/>
  <path d="M317.65,1086c-3.46-1.9-6.11-4.91-7.95-9.03-1.84-4.12-2.76-9.51-2.76-16.19v-34.53c0-6.72.92-12.13,2.76-16.25,1.84-4.12,4.49-7.13,7.95-9.03,3.46-1.9,7.92-2.85,13.37-2.85h1.84c5.03,0,9.23.91,12.61,2.72,3.38,1.82,5.94,4.68,7.7,8.58,1.75,3.91,2.63,8.92,2.63,15.05v15.08h-15.33v-16.92c0-2.45-.29-4.48-.86-6.08-.57-1.6-1.43-2.78-2.57-3.52-1.14-.74-2.66-1.11-4.56-1.11h-1.2c-2.92,0-5.09.97-6.53,2.91-1.44,1.94-2.15,5.13-2.15,9.57v38.2c0,4.39.72,7.56,2.15,9.5,1.44,1.94,3.61,2.91,6.53,2.91h1.2c1.9,0,3.42-.37,4.56-1.11,1.14-.74,2-1.91,2.57-3.52.57-1.6.86-3.63.86-6.08v-14.64h15.33v12.8c0,6.17-.88,11.19-2.63,15.08-1.75,3.89-4.32,6.74-7.7,8.55-3.38,1.82-7.58,2.72-12.61,2.72h-1.84c-5.45,0-9.9-.95-13.37-2.85Z" fill="lime"/>
  <path d="M373.72,1049.57h15.4v38.27h-15.4v-38.27ZM357.32,999.14h16.54l6.46,44.98h2.03l6.91-44.98h16.28l-12.61,61.08h-22.94l-12.67-61.08Z" fill="lime"/>
  <path d="M417.25,1085.93c-3.46-1.94-6.08-4.96-7.86-9.06-1.77-4.1-2.66-9.48-2.66-16.16v-34.47c0-6.76.89-12.18,2.66-16.28,1.77-4.1,4.39-7.1,7.86-9,3.46-1.9,7.94-2.85,13.43-2.85h1.77c5.07,0,9.31.91,12.74,2.72,3.42,1.82,6,4.67,7.73,8.55,1.73,3.89,2.6,8.96,2.6,15.21v14.83h-15.46v-16.73c0-2.53-.28-4.58-.82-6.15-.55-1.56-1.42-2.72-2.6-3.48-1.18-.76-2.7-1.14-4.56-1.14h-1.14c-2.96,0-5.13.97-6.53,2.91-1.39,1.94-2.09,5.11-2.09,9.5v38.27c0,4.39.72,7.56,2.15,9.5,1.44,1.94,3.59,2.92,6.46,2.92h1.14c1.94,0,3.48-.38,4.62-1.14s1.98-1.94,2.53-3.55c.55-1.6.82-3.63.82-6.08v-14.57h15.46v12.67c0,6.25-.87,11.32-2.6,15.21-1.73,3.89-4.31,6.74-7.73,8.55-3.42,1.82-7.67,2.72-12.74,2.72h-1.77c-5.49,0-9.97-.97-13.43-2.91Z" fill="lime"/>
  <path d="M550.74,1086.41c-3.04-1.46-5.32-3.8-6.84-7.03s-2.28-7.44-2.28-12.64v-10.45h11.66v11.78c0,2.49.35,4.51,1.05,6.05.7,1.54,1.75,2.71,3.17,3.52,1.41.8,3.13,1.2,5.16,1.2h1.65c3.04,0,5.31-.74,6.81-2.22,1.5-1.48,2.25-3.78,2.25-6.91v-5.51c0-2.91-.56-5.31-1.68-7.19-1.12-1.88-2.51-3.42-4.18-4.62-1.67-1.2-3.94-2.5-6.81-3.9-3.89-1.82-7.08-3.56-9.57-5.23-2.49-1.67-4.62-4.1-6.37-7.29-1.75-3.19-2.63-7.42-2.63-12.7v-4.06c0-4.98.76-9,2.28-12.04,1.52-3.04,3.77-5.27,6.75-6.68,2.98-1.41,6.77-2.12,11.37-2.12h1.58c4.65,0,8.47.73,11.47,2.19,3,1.46,5.25,3.78,6.75,6.97,1.5,3.19,2.25,7.42,2.25,12.7v11.02h-11.78v-12.67c0-2.36-.32-4.32-.95-5.86-.63-1.54-1.63-2.69-2.98-3.45-1.35-.76-2.98-1.14-4.88-1.14h-1.39c-2.75,0-4.85.73-6.3,2.19-1.46,1.46-2.19,3.69-2.19,6.68v5.51c0,3.08.56,5.6,1.68,7.54,1.12,1.94,2.53,3.52,4.25,4.72,1.71,1.2,3.95,2.58,6.81,3.96,3.85,1.85,7.05,3.48,9.5,5.1,2.45,1.63,4.56,4.03,6.34,7.22,1.77,3.19,2.66,7.34,2.66,12.45v4.06c0,5.15-.78,9.26-2.34,12.32-1.56,3.06-3.86,5.28-6.91,6.65-3.04,1.37-6.91,2.06-11.59,2.06h-2.03c-4.77,0-8.68-.73-11.72-2.19Z" fill="lime"/>
  <path d="M199.72,1041.65h25.66v11.15h-25.66v-11.15ZM227.47,1010.41h-21.22v66.14h21.22v11.28h-33.9v-88.7h33.9v11.28Z" fill="lime"/>
  <path d="M508.28,1041.27h25.6v11.97h-25.6v-11.97ZM535.97,1011.24h-20.78v64.5h20.78v12.1h-34.34v-88.7h34.34v12.1Z" fill="lime"/>
  <polygon points="462.19 999.14 476.64 999.14 476.64 1074.85 496.41 1074.85 496.41 1087.83 462.19 1087.83 462.19 999.14" fill="lime"/>
  <path d="M263.29,1040.79c1.18-1.46,1.77-3.79,1.77-7v-12.86c0-3.21-.59-5.55-1.77-7.03-1.18-1.48-3.04-2.22-5.58-2.22h-9.12v76.16h-14.45v-88.7h26.04c6.67,0,11.66,1.67,14.95,5,3.29,3.34,4.94,8.45,4.94,15.33v10.77c0,4.35-.86,7.93-2.57,10.74-1.71,2.81-4.07,4.7-7.06,5.67v1.14c2.7.93,4.69,2.55,5.96,4.85,1.27,2.3,1.9,5.38,1.9,9.22v9.88c0,1.4.23,2.38.7,2.95.46.57,1.21.96,2.22.85.59-.06,1.25-.08,1.96-.13v12.54c-.97.13-2.02.22-3.14.28-1.12.06-2.25.1-3.39.1-3.29,0-5.87-.46-7.73-1.39-1.86-.93-3.21-2.36-4.05-4.31-.85-1.94-1.27-4.67-1.27-8.17v-14c0-2.41-.42-4.1-1.27-5.07-.85-.97-2.18-1.46-3.99-1.46h-11.4v-10.96h10.77c2.53,0,4.39-.73,5.58-2.19Z" fill="lime"/>
  <polygon points="115.58 999.14 126.42 999.14 134.59 1071.93 135.79 1071.93 145.11 999.14 156.64 999.14 165.76 1071.93 167.03 1071.93 175.14 999.14 186.04 999.14 174.89 1087.83 160.31 1087.83 151.32 1026.19 150.24 1026.19 141.43 1087.83 126.86 1087.83 115.58 999.14" fill="lime"/>
  <path d="M12.62,1098.18h22.71c4.18,0,7.62.75,10.31,2.25,2.69,1.5,4.65,3.81,5.88,6.94,1.22,3.13,1.84,7.12,1.84,11.97v21.22c0,4.73-.61,8.68-1.84,11.85-1.23,3.17-3.16,5.5-5.81,7-2.65,1.5-6.05,2.25-10.18,2.25H15.79v-3.67h19.61c5.03,0,8.58-1.34,10.66-4.04,2.08-2.69,3.12-7.05,3.12-13.07v-21.86c0-5.96-1.07-10.28-3.2-12.97-2.13-2.69-5.69-4.04-10.68-4.04h-18.75v84.87h-3.93v-88.7Z" fill="lime"/>
  <path d="M99.68,1177.15c2.54-3.25,3.82-8.28,3.82-15.08v-39.06c0-6.82-1.29-11.86-3.88-15.11-2.59-3.25-6.54-4.88-11.86-4.88h-1.01c-5.39,0-9.4,1.63-12.05,4.88-2.65,3.25-3.98,8.29-3.98,15.11v39.06c0,6.82,1.32,11.85,3.98,15.09,2.65,3.24,6.67,4.86,12.05,4.86h1.01c5.41,0,9.38-1.63,11.93-4.88ZM74.34,1184.98c-3.24-1.94-5.71-4.86-7.4-8.76-1.69-3.9-2.53-8.82-2.53-14.78v-37.79c0-6.04.84-10.99,2.53-14.86,1.69-3.86,4.16-6.77,7.4-8.71,3.24-1.94,7.35-2.91,12.34-2.91h1.14c4.98,0,9.08.97,12.28,2.91,3.2,1.94,5.64,4.85,7.33,8.71,1.69,3.86,2.53,8.82,2.53,14.86v37.79c0,5.96-.84,10.88-2.52,14.78-1.68,3.9-4.12,6.82-7.33,8.76-3.21,1.94-7.31,2.91-12.29,2.91h-1.14c-4.99,0-9.1-.97-12.34-2.91Z" fill="lime"/>
  <path d="M318.36,1185.04c-3.4-1.9-6-4.88-7.81-8.95-1.81-4.06-2.71-9.35-2.71-15.85v-35.39c0-6.53.9-11.82,2.71-15.89,1.81-4.06,4.41-7.05,7.81-8.95,3.4-1.9,7.79-2.85,13.18-2.85h1.74c4.92,0,9.04.91,12.35,2.72,3.31,1.82,5.82,4.63,7.52,8.44,1.7,3.81,2.55,8.62,2.55,14.43v15.14h-13.5v-16.69c0-2.62-.33-4.81-1-6.59-.66-1.77-1.66-3.09-2.99-3.94-1.33-.85-3.08-1.28-5.26-1.28h-1.24c-3.4,0-5.94,1.1-7.6,3.29-1.67,2.2-2.5,5.73-2.5,10.61v38.49c0,4.86.83,8.39,2.5,10.58,1.67,2.2,4.2,3.29,7.6,3.29h1.24c2.17,0,3.93-.43,5.26-1.28,1.33-.85,2.33-2.17,2.99-3.94.67-1.77,1-3.97,1-6.59v-14.1h13.5v12.54c0,5.87-.85,10.7-2.55,14.48-1.7,3.78-4.21,6.58-7.52,8.39-3.32,1.82-7.43,2.72-12.35,2.72h-1.74c-5.38,0-9.78-.95-13.18-2.85Z" fill="lime"/>
  <path d="M374.6,1148.67h14.48v38.2h-14.48v-38.2ZM357.97,1098.18h15.55l7.16,45.36h2.15l7.57-45.36h15.3l-12.89,60.51h-21.86l-12.99-60.51Z" fill="lime"/>
  <path d="M417.65,1184.98c-3.46-1.94-6.08-4.96-7.86-9.06-1.77-4.1-2.66-9.48-2.66-16.16v-34.47c0-6.76.89-12.18,2.66-16.28,1.77-4.1,4.39-7.1,7.86-9,3.46-1.9,7.94-2.85,13.43-2.85h1.77c5.07,0,9.31.91,12.74,2.72,3.42,1.82,6,4.67,7.73,8.55,1.73,3.89,2.6,8.96,2.6,15.21v14.83h-15.46v-16.73c0-2.53-.28-4.58-.82-6.15-.55-1.56-1.42-2.72-2.6-3.48-1.18-.76-2.7-1.14-4.56-1.14h-1.14c-2.96,0-5.13.97-6.53,2.91-1.39,1.94-2.09,5.11-2.09,9.5v38.27c0,4.39.72,7.56,2.15,9.5,1.44,1.94,3.59,2.92,6.46,2.92h1.14c1.94,0,3.48-.38,4.62-1.14s1.98-1.94,2.53-3.55c.55-1.6.82-3.63.82-6.08v-14.57h15.46v12.67c0,6.25-.87,11.32-2.6,15.21-1.73,3.89-4.31,6.74-7.73,8.55-3.42,1.82-7.67,2.72-12.74,2.72h-1.77c-5.49,0-9.97-.97-13.43-2.91Z" fill="lime"/>
  <path d="M550.48,1185.47c-3.15-1.4-5.51-3.74-7.1-7-1.58-3.26-2.38-7.65-2.38-13.16v-10.42h15.27v12.29c0,1.84.26,3.32.78,4.45.52,1.13,1.28,1.98,2.28,2.55,1,.57,2.22.86,3.66.86h1.58c2.24,0,3.88-.52,4.93-1.55,1.04-1.03,1.57-2.71,1.57-5.04v-7.44c0-2.17-.48-3.97-1.44-5.4-.96-1.42-2.15-2.61-3.58-3.55-1.43-.94-3.41-1.95-5.94-3.03-3.84-1.54-7.03-3.08-9.57-4.61-2.53-1.53-4.71-3.85-6.51-6.97-1.81-3.11-2.71-7.3-2.71-12.56v-5.45c0-5.36.8-9.65,2.41-12.86,1.6-3.21,3.99-5.53,7.14-6.95,3.16-1.43,7.2-2.14,12.12-2.14h1.55c4.9,0,8.92.7,12.07,2.11,3.15,1.41,5.51,3.74,7.08,7,1.57,3.26,2.36,7.67,2.36,13.23v10.58h-15.4v-12.8c0-1.77-.23-3.21-.7-4.32-.47-1.11-1.18-1.93-2.15-2.46-.97-.53-2.12-.79-3.45-.79h-1.27c-1.96,0-3.47.51-4.51,1.54-1.05,1.03-1.57,2.63-1.57,4.8v7.51c0,2.35.48,4.25,1.44,5.7.96,1.46,2.17,2.65,3.64,3.56,1.47.92,3.43,2.01,5.97,3.09,3.81,1.61,7.01,3.03,9.5,4.51,2.49,1.49,4.65,3.79,6.46,6.91,1.81,3.12,2.72,7.24,2.72,12.37v5.45c0,5.58-.81,9.97-2.44,13.19-1.63,3.22-4.02,5.51-7.19,6.87-3.17,1.36-7.25,2.04-12.26,2.04h-2.15c-5.01,0-9.08-.7-12.23-2.11Z" fill="lime"/>
  <path d="M199.68,1141.61h25.88v9.25h-25.88v-9.25ZM227.43,1107.49h-22.33v70.07h22.33v9.31h-32.72v-88.7h32.72v9.31Z" fill="lime"/>
  <path d="M509.22,1139.2h25.34v14.29h-25.34v-14.29ZM536.88,1112.66h-19.45v59.75h19.45v14.48h-35.73v-88.7h35.73v14.48Z" fill="lime"/>
  <polygon points="462.15 1098.18 477.99 1098.18 477.99 1172.72 496.99 1172.72 496.99 1186.88 462.15 1186.88 462.15 1098.18" fill="lime"/>
  <path d="M264.83,1139.88c1.39-1.72,2.09-4.44,2.09-8.16v-12.2c0-3.67-.7-6.37-2.09-8.08-1.39-1.71-3.57-2.57-6.53-2.57h-10.83v77.99h-12.16v-88.7h24.99c6.42,0,11.23,1.67,14.45,5,3.21,3.34,4.82,8.4,4.82,15.17v10.52c0,4.5-.86,8.18-2.58,11.04-1.72,2.86-4.09,4.77-7.11,5.72v1.08c2.75.84,4.77,2.46,6.08,4.83,1.31,2.38,1.96,5.54,1.96,9.49v11.09c0,1.63.25,2.76.76,3.41.51.64,1.35,1.03,2.53.97.59-.03,1.26-.06,2-.13v10.64c-.87.1-1.78.18-2.74.24-.96.05-1.94.08-2.93.08-3.04,0-5.42-.44-7.13-1.33-1.71-.89-2.96-2.24-3.74-4.06-.78-1.82-1.17-4.36-1.17-7.63v-14.29c0-2.98-.54-5.08-1.62-6.3-1.08-1.22-2.77-1.84-5.07-1.84h-12.8v-9.41h12.29c2.96,0,5.13-.86,6.53-2.58Z" fill="lime"/>
  <polygon points="116.62 1098.18 125.14 1098.18 134.67 1174.37 135.72 1174.37 146.46 1098.18 156.09 1098.18 166.6 1174.37 167.74 1174.37 177.18 1098.18 185.8 1098.18 173.95 1186.88 162.17 1186.88 151.65 1118.74 150.67 1118.74 140.37 1186.88 128.53 1186.88 116.62 1098.18" fill="lime"/>
  <path d="M13.53,1197.22h22.3c4.14,0,7.52.74,10.14,2.22,2.62,1.48,4.52,3.74,5.7,6.78,1.18,3.04,1.77,6.89,1.77,11.53v21.67c0,4.56-.59,8.38-1.77,11.47-1.18,3.08-3.06,5.37-5.64,6.84-2.58,1.48-5.89,2.22-9.95,2.22H15.43v-2.53h20.65c5.32,0,9.08-1.41,11.28-4.25,2.2-2.83,3.29-7.41,3.29-13.75v-21.67c0-6.25-1.12-10.79-3.36-13.62-2.24-2.83-6.02-4.25-11.34-4.25h-19.89v86.04h-2.53v-88.7Z" fill="lime"/>
  <path d="M75.04,1284.02c-3.17-1.94-5.58-4.83-7.22-8.68-1.65-3.84-2.47-8.68-2.47-14.51v-38.52c0-5.91.82-10.77,2.47-14.57,1.65-3.8,4.06-6.67,7.22-8.62,3.17-1.94,7.2-2.91,12.1-2.91h1.01c4.9,0,8.91.97,12.04,2.91,3.12,1.94,5.51,4.82,7.16,8.62,1.65,3.8,2.47,8.66,2.47,14.57v38.52c0,5.83-.82,10.67-2.47,14.51-1.65,3.85-4.04,6.74-7.16,8.68-3.13,1.94-7.14,2.91-12.04,2.91h-1.01c-4.9,0-8.93-.97-12.1-2.91ZM101.08,1277.37c2.79-3.5,4.18-8.89,4.18-16.16v-39.28c0-7.26-1.42-12.65-4.25-16.16-2.83-3.5-7.12-5.26-12.86-5.26h-1.01c-5.83,0-10.18,1.75-13.05,5.26-2.87,3.51-4.31,8.89-4.31,16.16v39.28c0,7.27,1.44,12.65,4.31,16.16,2.87,3.51,7.22,5.26,13.05,5.26h1.01c5.83,0,10.14-1.75,12.92-5.26Z" fill="lime"/>
  <path d="M319.08,1284.08c-3.34-1.9-5.89-4.86-7.67-8.87-1.77-4.01-2.66-9.19-2.66-15.52v-36.24c0-6.34.89-11.51,2.66-15.52,1.77-4.01,4.33-6.97,7.67-8.87,3.34-1.9,7.67-2.85,12.99-2.85h1.65c4.82,0,8.85.91,12.1,2.72,3.25,1.82,5.7,4.58,7.35,8.3,1.65,3.72,2.47,8.32,2.47,13.81v15.21h-11.66v-16.47c0-2.79-.38-5.15-1.14-7.1-.76-1.94-1.9-3.4-3.42-4.37-1.52-.97-3.51-1.46-5.96-1.46h-1.27c-3.89,0-6.78,1.23-8.68,3.67-1.9,2.45-2.85,6.34-2.85,11.66v38.77c0,5.32.95,9.21,2.85,11.66,1.9,2.45,4.79,3.67,8.68,3.67h1.27c2.45,0,4.43-.49,5.96-1.46,1.52-.97,2.66-2.43,3.42-4.37.76-1.94,1.14-4.31,1.14-7.1v-13.56h11.66v12.29c0,5.58-.82,10.2-2.47,13.88-1.65,3.67-4.1,6.42-7.35,8.24-3.25,1.82-7.29,2.72-12.1,2.72h-1.65c-5.32,0-9.65-.95-12.99-2.85Z" fill="lime"/>
  <path d="M358.62,1197.22h14.57l7.86,45.74h2.28l8.24-45.74h14.32l-13.18,59.94h-20.78l-13.3-59.94ZM375.47,1247.78h13.56v38.14h-13.56v-38.14Z" fill="lime"/>
  <path d="M418.05,1284.02c-3.46-1.94-6.08-4.96-7.86-9.06-1.77-4.1-2.66-9.48-2.66-16.16v-34.47c0-6.76.89-12.18,2.66-16.28,1.77-4.1,4.39-7.1,7.86-9,3.46-1.9,7.94-2.85,13.43-2.85h1.77c5.07,0,9.31.91,12.74,2.72,3.42,1.82,6,4.67,7.73,8.55,1.73,3.89,2.6,8.96,2.6,15.21v14.83h-15.46v-16.73c0-2.53-.28-4.58-.82-6.15-.55-1.56-1.42-2.72-2.6-3.48-1.18-.76-2.7-1.14-4.56-1.14h-1.14c-2.96,0-5.13.97-6.53,2.91-1.39,1.94-2.09,5.11-2.09,9.5v38.27c0,4.39.72,7.56,2.15,9.5,1.44,1.94,3.59,2.92,6.46,2.92h1.14c1.94,0,3.48-.38,4.62-1.14s1.98-1.94,2.53-3.55c.55-1.6.82-3.63.82-6.08v-14.57h15.46v12.67c0,6.25-.87,11.32-2.6,15.21-1.73,3.89-4.31,6.74-7.73,8.55-3.42,1.82-7.67,2.72-12.74,2.72h-1.77c-5.49,0-9.97-.97-13.43-2.91Z" fill="lime"/>
  <path d="M550.21,1284.53c-3.25-1.35-5.7-3.67-7.35-6.97-1.65-3.29-2.47-7.86-2.47-13.68v-10.39h18.88v12.8c0,1.18.17,2.13.51,2.85.34.72.8,1.25,1.39,1.58.59.34,1.31.51,2.15.51h1.52c1.44,0,2.45-.29,3.04-.89.59-.59.89-1.65.89-3.17v-9.38c0-1.43-.4-2.64-1.2-3.61-.8-.97-1.8-1.79-2.98-2.47-1.18-.67-2.87-1.39-5.07-2.15-3.8-1.27-6.99-2.6-9.57-3.99-2.58-1.39-4.79-3.61-6.65-6.65-1.86-3.04-2.79-7.18-2.79-12.42v-6.84c0-5.74.84-10.3,2.53-13.68,1.69-3.38,4.2-5.79,7.54-7.22,3.34-1.44,7.62-2.15,12.86-2.15h1.52c5.15,0,9.38.68,12.67,2.03,3.29,1.35,5.77,3.7,7.41,7.03,1.65,3.34,2.47,7.92,2.47,13.75v10.14h-19.01v-12.92c0-1.18-.15-2.11-.44-2.79-.3-.68-.74-1.16-1.33-1.46-.59-.29-1.27-.44-2.03-.44h-1.14c-1.18,0-2.09.3-2.72.89-.63.59-.95,1.56-.95,2.92v9.5c0,1.61.4,2.9,1.2,3.87.8.97,1.82,1.77,3.04,2.41,1.22.63,2.93,1.37,5.13,2.22,3.8,1.27,6.97,2.58,9.5,3.93,2.53,1.35,4.73,3.55,6.59,6.59,1.86,3.04,2.79,7.14,2.79,12.29v6.84c0,6-.84,10.69-2.53,14.06-1.69,3.38-4.18,5.75-7.48,7.1-3.29,1.35-7.6,2.03-12.92,2.03h-2.28c-5.24,0-9.48-.68-12.73-2.03Z" fill="lime"/>
  <path d="M227.38,1204.57h-23.44v74h23.44v7.35h-31.55v-88.7h31.55v7.35ZM199.63,1241.57h26.1v7.35h-26.1v-7.35Z" fill="lime"/>
  <path d="M537.78,1214.07h-18.12v54.99h18.12v16.85h-37.13v-88.7h37.13v16.85ZM510.16,1237.14h25.09v16.6h-25.09v-16.6Z" fill="lime"/>
  <path d="M462.1,1197.22h17.23v73.37h18.25v15.33h-35.48v-88.7Z" fill="lime"/>
  <path d="M266.37,1238.97c1.6-1.98,2.41-5.09,2.41-9.31v-11.53c0-4.14-.8-7.18-2.41-9.12-1.61-1.94-4.1-2.92-7.48-2.92h-12.54v79.83h-9.88v-88.7h23.95c6.17,0,10.81,1.67,13.94,5,3.12,3.34,4.69,8.34,4.69,15.02v10.26c0,4.65-.87,8.43-2.6,11.34-1.73,2.91-4.12,4.84-7.16,5.77v1.01c2.79.76,4.86,2.37,6.21,4.82,1.35,2.45,2.03,5.7,2.03,9.76v12.29c0,1.86.27,3.15.82,3.87.55.72,1.5,1.08,2.85,1.08.59,0,1.27-.04,2.03-.13v8.74c-.76.08-1.54.15-2.34.19-.8.04-1.63.06-2.47.06-2.79,0-4.96-.42-6.53-1.27-1.56-.84-2.71-2.11-3.42-3.8-.72-1.69-1.08-4.05-1.08-7.1v-14.57c0-3.55-.66-6.06-1.96-7.54-1.31-1.48-3.36-2.22-6.15-2.22h-14.19v-7.86h13.81c3.38,0,5.87-.99,7.48-2.98Z" fill="lime"/>
  <path d="M117.65,1197.22h6.21l10.9,79.58h.89l12.17-79.58h7.73l11.91,79.58h1.01l10.77-79.58h6.34l-12.54,88.7h-9l-12.04-74.63h-.89l-11.78,74.63h-9.12l-12.54-88.7Z" fill="lime"/>
  <path d="M13.13,1295.36h22.3c4.14,0,7.52.74,10.14,2.22,2.62,1.48,4.52,3.74,5.7,6.78,1.18,3.04,1.77,6.89,1.77,11.53v21.67c0,4.56-.59,8.38-1.77,11.47-1.18,3.08-3.06,5.37-5.64,6.84-2.58,1.48-5.89,2.22-9.95,2.22H15.03v-2.53h20.65c5.32,0,9.08-1.41,11.28-4.25,2.2-2.83,3.29-7.41,3.29-13.75v-21.67c0-6.25-1.12-10.79-3.36-13.62-2.24-2.83-6.02-4.25-11.34-4.25H15.66v86.04h-2.53v-88.7Z" fill="lime"/>
  <path d="M100.94,1375.81c2.83-3.58,4.25-9.05,4.25-16.43v-39.31c0-7.39-1.43-12.88-4.29-16.46-2.86-3.58-7.23-5.37-13.1-5.37h-1.05c-5.96,0-10.39,1.79-13.31,5.37-2.91,3.58-4.37,9.07-4.37,16.46v39.31c0,7.39,1.46,12.87,4.37,16.44,2.91,3.57,7.35,5.35,13.31,5.35h1.05c5.93,0,10.32-1.79,13.15-5.37ZM74.71,1382.16c-3.17-1.94-5.56-4.83-7.19-8.66-1.63-3.83-2.44-8.63-2.44-14.4v-38.74c0-5.85.81-10.68,2.44-14.48,1.63-3.8,4.02-6.67,7.19-8.62,3.17-1.94,7.18-2.91,12.04-2.91h1.05c4.86,0,8.84.98,11.96,2.93,3.11,1.95,5.49,4.83,7.11,8.62,1.63,3.79,2.44,8.61,2.44,14.46v38.74c0,5.76-.81,10.56-2.44,14.38-1.63,3.82-4,6.71-7.11,8.66-3.12,1.95-7.1,2.93-11.96,2.93h-1.05c-4.86,0-8.87-.97-12.04-2.91Z" fill="lime"/>
  <path d="M319.06,1382.22c-3.27-1.9-5.76-4.83-7.48-8.78-1.71-3.95-2.57-8.99-2.57-15.11v-37.25c0-6.15.86-11.19,2.57-15.13,1.71-3.94,4.2-6.86,7.48-8.76,3.27-1.9,7.51-2.85,12.7-2.85h1.55c4.73,0,8.67.91,11.83,2.72,3.16,1.82,5.53,4.52,7.13,8.11,1.59,3.59,2.39,7.96,2.39,13.12v15.21h-9.41v-16.16c0-3.02-.43-5.61-1.3-7.76-.87-2.15-2.18-3.79-3.94-4.91-1.76-1.12-4.06-1.68-6.89-1.68h-1.27c-4.5,0-7.84,1.38-10.01,4.15-2.18,2.77-3.26,7.1-3.26,12.99v39.15c0,5.89,1.09,10.22,3.26,12.99,2.17,2.77,5.51,4.15,10.01,4.15h1.27c2.83,0,5.13-.56,6.89-1.68,1.76-1.12,3.08-2.75,3.94-4.91.87-2.15,1.3-4.74,1.3-7.76v-12.89h9.41v11.94c0,5.22-.8,9.6-2.39,13.16-1.59,3.56-3.97,6.25-7.13,8.06-3.16,1.82-7.1,2.72-11.83,2.72h-1.55c-5.19,0-9.43-.95-12.7-2.85Z" fill="lime"/>
  <path d="M376.5,1346.11h10.83v37.95h-10.83v-37.95ZM358.98,1295.36h11.63l9.95,46.98h2.63l10.23-46.98h11.47l-14.16,58.29h-17.49l-14.26-58.29Z" fill="lime"/>
  <path d="M418.2,1382.17c-3.37-1.93-5.91-4.9-7.62-8.92-1.71-4.01-2.57-9.21-2.57-15.59v-35.92c0-6.46.86-11.69,2.57-15.7,1.71-4,4.25-6.95,7.62-8.85,3.37-1.9,7.71-2.85,13.04-2.85h1.65c4.92,0,9.02.91,12.31,2.72,3.28,1.82,5.75,4.58,7.41,8.3,1.66,3.72,2.49,8.44,2.49,14.16v14.92h-12.26v-16.35c0-2.83-.35-5.18-1.06-7.05-.71-1.87-1.82-3.28-3.33-4.24-1.51-.96-3.46-1.44-5.84-1.44h-1.17c-3.8,0-6.6,1.19-8.39,3.58-1.8,2.39-2.69,6.18-2.69,11.37v38.77c0,5.2.91,8.99,2.74,11.37,1.83,2.39,4.61,3.58,8.35,3.58h1.17c2.45,0,4.41-.48,5.89-1.44,1.48-.96,2.57-2.39,3.28-4.29.71-1.9,1.06-4.23,1.06-7v-13.65h12.26v12.23c0,5.72-.83,10.44-2.49,14.16-1.66,3.72-4.13,6.48-7.41,8.3-3.28,1.82-7.39,2.72-12.31,2.72h-1.65c-5.32,0-9.67-.97-13.04-2.9Z" fill="lime"/>
  <path d="M550.56,1382.63c-3.14-1.41-5.49-3.74-7.06-6.99-1.57-3.24-2.36-7.61-2.36-13.1v-10.42h14.79v12.2c0,1.92.28,3.49.84,4.69.56,1.2,1.36,2.11,2.39,2.71,1.03.6,2.31.9,3.83.9h1.58c2.34,0,4.07-.55,5.18-1.65,1.11-1.1,1.66-2.86,1.66-5.29v-7.22c0-2.26-.49-4.13-1.47-5.62-.98-1.49-2.2-2.72-3.66-3.71-1.46-.98-3.47-2.02-6.05-3.12-3.84-1.56-7.03-3.11-9.55-4.66-2.52-1.54-4.69-3.89-6.49-7.03-1.81-3.15-2.71-7.36-2.71-12.64v-5.23c0-5.3.8-9.55,2.39-12.75,1.59-3.2,3.96-5.51,7.1-6.92,3.14-1.41,7.13-2.12,11.99-2.12h1.62c4.84,0,8.82.7,11.96,2.11,3.14,1.41,5.49,3.74,7.05,7,1.56,3.26,2.34,7.64,2.34,13.13v10.64h-14.92v-12.73c0-1.86-.25-3.38-.76-4.56-.51-1.18-1.26-2.05-2.26-2.61-1-.56-2.2-.84-3.6-.84h-1.33c-2.05,0-3.62.54-4.72,1.63-1.1,1.09-1.65,2.77-1.65,5.05v7.25c0,2.43.49,4.41,1.47,5.94.98,1.53,2.22,2.78,3.71,3.74,1.49.96,3.49,2.1,6.1,3.22,3.81,1.63,7.01,3.06,9.5,4.56,2.49,1.5,4.64,3.81,6.45,6.94,1.8,3.13,2.71,7.27,2.71,12.42v5.29c0,5.49-.81,9.84-2.44,13.05-1.63,3.21-4.01,5.49-7.16,6.84-3.15,1.35-7.2,2.03-12.16,2.03h-2.19c-4.94,0-8.98-.71-12.12-2.12Z" fill="lime"/>
  <path d="M198.95,1340.25h26.23v6.18h-26.23v-6.18ZM226.7,1301.53h-24.04v76.35h24.04v6.18h-30.76v-88.7h30.76v6.18Z" fill="lime"/>
  <path d="M508.94,1336.92h25.47v13.11h-25.47v-13.11ZM536.59,1308.66h-20.05v62.09h20.05v13.3h-34.94v-88.7h34.94v13.3Z" fill="lime"/>
  <polygon points="462.94 1295.36 476.5 1295.36 476.5 1371.89 496.71 1371.89 496.71 1384.06 462.94 1384.06 462.94 1295.36" fill="lime"/>
  <path d="M266.89,1337.19c1.77-2.19,2.66-5.61,2.66-10.28v-10.96c0-4.54-.89-7.89-2.66-10.06-1.77-2.16-4.52-3.25-8.24-3.25h-13.91v81.41h-8.05v-88.7h23.06c6.02,0,10.55,1.66,13.61,4.99,3.05,3.33,4.58,8.31,4.58,14.94v10.04c0,4.73-.88,8.58-2.63,11.55-1.75,2.97-4.17,4.91-7.25,5.81v.92c2.85.76,4.97,2.38,6.35,4.86,1.38,2.48,2.07,5.79,2.07,9.93v13.27c0,2.07.28,3.5.84,4.28.56.78,1.6,1.25,3.12,1.17.61-.03,1.3-.07,2.06-.16v7.22c-.63.08-1.3.14-2,.17-.7.03-1.41.05-2.12.05-2.58,0-4.59-.4-6.03-1.19-1.45-.79-2.5-1.99-3.17-3.6-.67-1.6-1-3.83-1-6.68v-15.02c0-3.93-.75-6.73-2.25-8.39-1.5-1.67-3.84-2.5-7.03-2.5h-15.27v-6.56h15.02c3.72,0,6.46-1.09,8.24-3.28Z" fill="lime"/>
  <polygon points="117.5 1295.36 122.79 1295.36 134.26 1376.26 135.08 1376.26 147.79 1295.36 154.76 1295.36 167.21 1376.26 168.16 1376.26 179.5 1295.36 184.91 1295.36 172.08 1384.06 164.2 1384.06 151.56 1306.83 150.73 1306.83 138.28 1384.06 130.33 1384.06 117.5 1295.36" fill="lime"/>
  <path d="M12.73,1393.49h22.3c4.14,0,7.52.74,10.14,2.22,2.62,1.48,4.52,3.74,5.7,6.78,1.18,3.04,1.77,6.89,1.77,11.53v21.67c0,4.56-.59,8.38-1.77,11.47-1.18,3.08-3.06,5.37-5.64,6.84-2.58,1.48-5.89,2.22-9.95,2.22H14.63v-2.53h20.65c5.32,0,9.08-1.41,11.28-4.25,2.2-2.83,3.29-7.41,3.29-13.75v-21.67c0-6.25-1.12-10.79-3.36-13.62-2.24-2.83-6.02-4.25-11.34-4.25H15.27v86.04h-2.53v-88.7Z" fill="lime"/>
  <path d="M100.79,1474.24c2.87-3.65,4.31-9.22,4.31-16.69v-39.34c0-7.52-1.45-13.1-4.34-16.76-2.89-3.65-7.34-5.48-13.34-5.48h-1.08c-6.08,0-10.6,1.83-13.56,5.48-2.96,3.65-4.43,9.24-4.43,16.76v39.34c0,7.52,1.48,13.09,4.43,16.73,2.96,3.63,7.48,5.45,13.56,5.45h1.08c6.04,0,10.5-1.83,13.37-5.48ZM74.37,1480.29c-3.17-1.94-5.55-4.83-7.16-8.65-1.61-3.82-2.41-8.58-2.41-14.29v-38.96c0-5.79.8-10.58,2.41-14.38,1.6-3.8,3.99-6.67,7.16-8.62,3.17-1.94,7.16-2.91,11.97-2.91h1.08c4.81,0,8.77.98,11.88,2.95,3.1,1.96,5.46,4.84,7.06,8.62,1.6,3.78,2.41,8.56,2.41,14.35v38.96c0,5.7-.8,10.45-2.41,14.25-1.61,3.8-3.96,6.69-7.06,8.65-3.11,1.96-7.07,2.95-11.88,2.95h-1.08c-4.82,0-8.81-.97-11.97-2.91Z" fill="lime"/>
  <path d="M319.04,1480.36c-3.21-1.9-5.64-4.79-7.29-8.68-1.65-3.88-2.47-8.79-2.47-14.7v-38.27c0-5.96.82-10.87,2.47-14.73,1.65-3.86,4.07-6.75,7.29-8.65,3.21-1.9,7.35-2.85,12.42-2.85h1.46c4.65,0,8.5.91,11.56,2.72,3.06,1.82,5.36,4.46,6.91,7.92,1.54,3.46,2.31,7.6,2.31,12.42v15.21h-7.16v-15.84c0-3.25-.49-6.06-1.46-8.43-.97-2.36-2.46-4.18-4.47-5.45-2.01-1.27-4.61-1.9-7.82-1.9h-1.27c-5.11,0-8.89,1.54-11.34,4.63-2.45,3.08-3.68,7.86-3.68,14.32v39.53c0,6.46,1.23,11.24,3.68,14.32,2.45,3.08,6.23,4.62,11.34,4.62h1.27c3.21,0,5.82-.63,7.82-1.9,2.01-1.27,3.49-3.08,4.47-5.45.97-2.36,1.46-5.17,1.46-8.43v-12.23h7.16v11.59c0,4.86-.77,9.01-2.31,12.45-1.54,3.44-3.84,6.07-6.91,7.89-3.06,1.82-6.92,2.72-11.56,2.72h-1.46c-5.07,0-9.21-.95-12.42-2.85Z" fill="lime"/>
  <path d="M377.53,1444.43h8.11v37.76h-8.11v-37.76ZM359.34,1393.49h8.68l12.04,48.21h2.98l12.23-48.21h8.62l-15.14,56.64h-14.19l-15.21-56.64Z" fill="lime"/>
  <path d="M418.36,1480.32c-3.27-1.92-5.73-4.85-7.38-8.78-1.65-3.93-2.47-8.93-2.47-15.02v-37.38c0-6.17.82-11.2,2.47-15.11,1.65-3.91,4.11-6.81,7.38-8.71,3.27-1.9,7.49-2.85,12.64-2.85h1.52c4.77,0,8.73.91,11.88,2.72,3.15,1.82,5.51,4.5,7.1,8.05,1.58,3.55,2.38,7.92,2.38,13.11v15.02h-9.06v-15.97c0-3.12-.43-5.77-1.3-7.95-.87-2.17-2.22-3.84-4.06-5-1.84-1.16-4.21-1.74-7.13-1.74h-1.2c-4.65,0-8.07,1.42-10.26,4.25-2.2,2.83-3.29,7.24-3.29,13.24v39.28c0,6,1.11,10.41,3.33,13.24,2.22,2.83,5.63,4.25,10.23,4.25h1.2c2.96,0,5.34-.58,7.16-1.74,1.82-1.16,3.16-2.84,4.02-5.04.87-2.2,1.3-4.83,1.3-7.92v-12.73h9.06v11.78c0,5.2-.79,9.57-2.38,13.12-1.58,3.55-3.95,6.23-7.1,8.05-3.15,1.82-7.11,2.72-11.88,2.72h-1.52c-5.15,0-9.37-.96-12.64-2.88Z" fill="lime"/>
  <path d="M550.9,1480.74c-3.02-1.48-5.28-3.81-6.78-7-1.5-3.19-2.25-7.36-2.25-12.51v-10.45h10.71v11.59c0,2.66.39,4.84,1.17,6.53.78,1.69,1.91,2.97,3.39,3.83,1.48.87,3.32,1.3,5.51,1.3h1.65c3.25,0,5.69-.8,7.32-2.41,1.63-1.6,2.44-4.08,2.44-7.41v-5.07c0-3.08-.58-5.63-1.74-7.63-1.16-2.01-2.61-3.65-4.34-4.94-1.73-1.29-4.08-2.65-7.03-4.09-3.89-1.86-7.07-3.63-9.54-5.32-2.47-1.69-4.58-4.16-6.34-7.41-1.75-3.25-2.63-7.54-2.63-12.86v-3.61c0-4.86.75-8.8,2.25-11.82,1.5-3.02,3.72-5.23,6.65-6.62,2.94-1.39,6.64-2.09,11.12-2.09h1.71c4.52,0,8.27.73,11.25,2.19,2.98,1.46,5.21,3.78,6.68,6.97,1.48,3.19,2.22,7.36,2.22,12.51v11.15h-10.83v-12.54c0-2.53-.36-4.65-1.08-6.34-.72-1.69-1.79-2.95-3.2-3.77-1.42-.82-3.14-1.24-5.16-1.24h-1.52c-2.92,0-5.15.79-6.72,2.38-1.56,1.59-2.34,3.98-2.34,7.19v5c0,3.25.58,5.93,1.74,8.01,1.16,2.09,2.62,3.78,4.37,5.07,1.75,1.29,4.08,2.75,7.06,4.21,3.85,1.89,7.05,3.55,9.5,5.2,2.45,1.65,4.55,4.08,6.3,7.29,1.75,3.21,2.63,7.39,2.63,12.54v3.74c0,4.99-.78,9-2.34,12.04-1.56,3.04-3.84,5.24-6.84,6.59-3,1.35-6.8,2.03-11.4,2.03h-2.09c-4.65,0-8.48-.74-11.5-2.22Z" fill="lime"/>
  <path d="M198.26,1438.92h26.36v5h-26.36v-5ZM226.02,1398.5h-24.65v78.69h24.65v5.01h-29.97v-88.7h29.97v5Z" fill="lime"/>
  <path d="M507.71,1436.7h25.85v9.63h-25.85v-9.63ZM535.4,1403.25h-21.98v69.19h21.98v9.76h-32.76v-88.7h32.76v9.76Z" fill="lime"/>
  <polygon points="463.78 1393.49 473.66 1393.49 473.66 1473.2 495.84 1473.2 495.84 1482.19 463.78 1482.19 463.78 1393.49" fill="lime"/>
  <path d="M267.41,1435.4c1.94-2.39,2.91-6.13,2.91-11.25v-10.39c0-4.94-.97-8.6-2.91-10.99-1.94-2.39-4.94-3.58-9-3.58h-15.27v83h-6.21v-88.7h22.17c5.87,0,10.29,1.66,13.27,4.97,2.98,3.32,4.47,8.27,4.47,14.86v9.82c0,4.82-.89,8.73-2.66,11.75-1.77,3.02-4.22,4.97-7.35,5.86v.82c2.91.76,5.08,2.4,6.49,4.91,1.41,2.51,2.12,5.88,2.12,10.1v14.26c0,2.28.28,3.85.85,4.69.57.85,1.71,1.43,3.39,1.27.63-.06,1.33-.1,2.09-.19v5.7c-.51.08-1.06.14-1.65.16-.59.02-1.18.03-1.77.03-2.37,0-4.21-.37-5.54-1.11-1.33-.74-2.3-1.87-2.91-3.39-.61-1.52-.92-3.61-.92-6.27v-15.46c0-4.31-.85-7.39-2.53-9.25-1.69-1.86-4.33-2.79-7.92-2.79h-16.35v-5.26h16.22c4.05,0,7.05-1.19,9-3.58Z" fill="lime"/>
  <polygon points="117.36 1393.49 121.73 1393.49 133.77 1475.73 134.53 1475.73 147.77 1393.49 153.98 1393.49 166.97 1475.73 167.85 1475.73 179.76 1393.49 184.26 1393.49 171.15 1482.19 164.37 1482.19 151.13 1402.36 150.37 1402.36 137.25 1482.19 130.47 1482.19 117.36 1393.49" fill="lime"/>
  <path d="M12.33,1491.63h22.3c4.14,0,7.52.74,10.14,2.22,2.62,1.48,4.52,3.74,5.7,6.78,1.18,3.04,1.77,6.89,1.77,11.53v21.67c0,4.56-.59,8.38-1.77,11.47-1.18,3.08-3.06,5.37-5.64,6.84-2.58,1.48-5.89,2.22-9.95,2.22H14.23v-2.53h20.65c5.32,0,9.08-1.41,11.28-4.25,2.2-2.83,3.29-7.41,3.29-13.75v-21.67c0-6.25-1.12-10.79-3.36-13.62-2.24-2.83-6.02-4.25-11.34-4.25H14.87v86.04h-2.53v-88.7Z" fill="lime"/>
  <path d="M100.65,1572.68c2.91-3.73,4.37-9.38,4.37-16.96v-39.38c0-7.64-1.46-13.33-4.39-17.06-2.93-3.73-7.45-5.59-13.57-5.59h-1.11c-6.21,0-10.81,1.86-13.81,5.59-3,3.73-4.5,9.41-4.5,17.06v39.38c0,7.65,1.5,13.32,4.5,17.01,3,3.7,7.6,5.54,13.81,5.54h1.11c6.14,0,10.67-1.86,13.59-5.59ZM74.04,1578.43c-3.17-1.94-5.54-4.82-7.13-8.63-1.58-3.81-2.38-8.54-2.38-14.18v-39.19c0-5.72.79-10.49,2.38-14.29,1.58-3.8,3.96-6.67,7.13-8.62,3.17-1.94,7.14-2.91,11.91-2.91h1.11c4.77,0,8.7.99,11.8,2.96,3.09,1.98,5.43,4.85,7.02,8.62,1.58,3.77,2.38,8.52,2.38,14.24v39.19c0,5.64-.79,10.35-2.38,14.13-1.59,3.78-3.92,6.66-7.02,8.63-3.1,1.97-7.03,2.96-11.8,2.96h-1.11c-4.77,0-8.74-.97-11.91-2.91Z" fill="lime"/>
  <path d="M319.02,1578.49c-3.15-1.9-5.51-4.76-7.1-8.59-1.58-3.82-2.38-8.58-2.38-14.29v-39.28c0-5.77.79-10.54,2.38-14.33,1.58-3.79,3.95-6.64,7.1-8.54,3.15-1.9,7.19-2.85,12.13-2.85h1.36c4.56,0,8.33.91,11.29,2.72,2.97,1.82,5.19,4.39,6.68,7.73,1.49,3.34,2.23,7.24,2.23,11.72v15.21h-4.91v-15.52c0-3.48-.54-6.51-1.62-9.09-1.08-2.58-2.74-4.57-4.99-5.99-2.25-1.41-5.17-2.12-8.76-2.12h-1.27c-5.72,0-9.95,1.7-12.67,5.1-2.73,3.4-4.09,8.62-4.09,15.65v39.91c0,7.03,1.36,12.25,4.09,15.65,2.72,3.4,6.95,5.1,12.67,5.1h1.27c3.59,0,6.51-.71,8.76-2.12,2.25-1.41,3.91-3.41,4.99-5.99,1.08-2.58,1.62-5.61,1.62-9.09v-11.56h4.91v11.25c0,4.5-.75,8.41-2.23,11.74-1.49,3.33-3.72,5.9-6.68,7.71-2.97,1.82-6.73,2.72-11.29,2.72h-1.36c-4.94,0-8.99-.95-12.13-2.85Z" fill="lime"/>
  <path d="M378.55,1542.76h5.39v37.57h-5.39v-37.57ZM359.7,1491.63h5.73l14.13,49.45h3.33l14.22-49.45h5.77l-16.12,54.99h-10.9l-16.16-54.99Z" fill="lime"/>
  <path d="M418.52,1578.48c-3.18-1.91-5.56-4.79-7.14-8.63-1.58-3.84-2.38-8.66-2.38-14.45v-38.84c0-5.87.79-10.71,2.38-14.52,1.58-3.81,3.96-6.67,7.14-8.57,3.18-1.9,7.26-2.85,12.24-2.85h1.39c4.62,0,8.44.91,11.45,2.72,3.01,1.82,5.27,4.41,6.78,7.79,1.51,3.38,2.27,7.4,2.27,12.07v15.11h-5.86v-15.59c0-3.42-.51-6.37-1.54-8.85-1.03-2.48-2.62-4.4-4.78-5.77-2.17-1.36-4.97-2.04-8.41-2.04h-1.24c-5.49,0-9.54,1.64-12.13,4.91-2.6,3.27-3.9,8.31-3.9,15.11v39.79c0,6.8,1.3,11.84,3.91,15.11,2.61,3.27,6.65,4.91,12.12,4.91h1.24c3.46,0,6.27-.68,8.43-2.04,2.15-1.36,3.74-3.29,4.77-5.78,1.02-2.49,1.54-5.44,1.54-8.84v-11.82h5.86v11.34c0,4.67-.76,8.69-2.27,12.07-1.51,3.38-3.77,5.98-6.78,7.79-3.01,1.82-6.83,2.72-11.45,2.72h-1.39c-4.98,0-9.07-.96-12.24-2.87Z" fill="lime"/>
  <path d="M551.25,1578.84c-2.9-1.54-5.07-3.88-6.49-7.02-1.43-3.14-2.14-7.11-2.14-11.93v-10.49h6.62v10.99c0,3.4.5,6.19,1.51,8.36,1,2.18,2.46,3.83,4.39,4.96,1.92,1.13,4.32,1.69,7.19,1.69h1.71c4.16,0,7.31-1.06,9.46-3.17,2.14-2.11,3.22-5.29,3.22-9.54v-2.91c0-3.91-.67-7.12-2.01-9.65-1.34-2.52-3.02-4.58-5.02-6.18-2.01-1.59-4.68-3.28-8.01-5.05-3.93-2.15-7.1-4.15-9.52-5.99-2.42-1.84-4.48-4.43-6.18-7.79-1.7-3.36-2.55-7.72-2.55-13.08v-2c0-4.41.7-8.04,2.11-10.88,1.4-2.84,3.47-4.95,6.21-6.32,2.73-1.37,6.15-2.06,10.25-2.06h1.81c4.2,0,7.71.76,10.53,2.27,2.82,1.51,4.93,3.82,6.32,6.94,1.39,3.12,2.09,7.08,2.09,11.9v11.66h-6.75v-12.35c0-3.21-.46-5.91-1.39-8.11-.93-2.2-2.31-3.84-4.13-4.93-1.83-1.09-4.07-1.63-6.73-1.63h-1.71c-3.78,0-6.69,1.04-8.71,3.12-2.03,2.08-3.04,5.19-3.04,9.33v2.76c0,4.08.67,7.44,2.01,10.09,1.34,2.65,3.02,4.78,5.04,6.4,2.02,1.62,4.68,3.38,8.03,5.21,3.91,2.13,7.1,4.03,9.5,5.83,2.41,1.8,4.46,4.34,6.16,7.63,1.7,3.3,2.55,7.52,2.55,12.67v2.19c0,4.48-.75,8.15-2.25,11.02-1.5,2.87-3.67,4.99-6.53,6.34-2.85,1.35-6.4,2.03-10.64,2.03h-2c-4.35,0-7.98-.77-10.88-2.31Z" fill="lime"/>
  <path d="M197.58,1537.6h26.48v3.83h-26.48v-3.83ZM225.33,1495.46h-25.25v81.03h25.25v3.83h-29.18v-88.7h29.18v3.83Z" fill="lime"/>
  <path d="M506.49,1536.49h26.23v6.15h-26.23v-6.15ZM534.21,1497.84h-23.92v76.28h23.92v6.21h-30.57v-88.7h30.57v6.21Z" fill="lime"/>
  <polygon points="464.61 1491.63 470.82 1491.63 470.82 1574.5 494.96 1574.5 494.96 1580.33 464.61 1580.33 464.61 1491.63" fill="lime"/>
  <path d="M267.93,1533.62c2.11-2.59,3.17-6.66,3.17-12.21v-9.82c0-5.34-1.06-9.32-3.17-11.93-2.11-2.61-5.36-3.91-9.76-3.91h-16.63v84.58h-4.37v-88.7h21.29c5.72,0,10.04,1.65,12.94,4.96,2.9,3.31,4.36,8.23,4.36,14.78v9.6c0,4.9-.9,8.89-2.69,11.96-1.8,3.07-4.28,5.04-7.44,5.91v.73c2.98.76,5.19,2.41,6.64,4.96,1.45,2.55,2.17,5.97,2.17,10.28v15.24c0,2.49.29,4.19.87,5.1.58.91,1.82,1.63,3.66,1.36.65-.09,1.36-.14,2.12-.22v4.18c-.38.08-.81.13-1.3.14-.49.01-.96.02-1.43.02-2.16,0-3.84-.34-5.05-1.03-1.22-.69-2.1-1.75-2.66-3.18-.56-1.44-.84-3.39-.84-5.86v-15.9c0-4.69-.94-8.06-2.82-10.11-1.88-2.05-4.82-3.07-8.81-3.07h-17.42v-3.96h17.42c4.39,0,7.64-1.29,9.76-3.88Z" fill="lime"/>
  <polygon points="117.21 1491.63 120.67 1491.63 133.27 1575.2 133.97 1575.2 147.75 1491.63 153.2 1491.63 166.73 1575.2 167.55 1575.2 180.03 1491.63 183.61 1491.63 170.21 1580.33 164.54 1580.33 150.7 1497.9 150 1497.9 136.22 1580.33 130.61 1580.33 117.21 1491.63" fill="lime"/>
  <path d="M11.93,1589.77h22.3c4.14,0,7.52.74,10.14,2.22,2.62,1.48,4.52,3.74,5.7,6.78,1.18,3.04,1.77,6.89,1.77,11.53v21.67c0,4.56-.59,8.38-1.77,11.47-1.18,3.08-3.06,5.37-5.64,6.84-2.58,1.48-5.89,2.22-9.95,2.22H13.84v-2.53h20.65c5.32,0,9.08-1.41,11.28-4.25,2.2-2.83,3.29-7.41,3.29-13.75v-21.67c0-6.25-1.12-10.79-3.36-13.62-2.24-2.83-6.02-4.25-11.34-4.25H14.47v86.04h-2.53v-88.7Z" fill="lime"/>
  <path d="M73.7,1676.57c-3.17-1.94-5.53-4.82-7.1-8.62-1.56-3.8-2.34-8.49-2.34-14.06v-39.41c0-5.66.78-10.39,2.34-14.19,1.56-3.8,3.93-6.67,7.1-8.62,3.17-1.94,7.12-2.91,11.85-2.91h1.14c4.73,0,8.64.99,11.72,2.98,3.08,1.99,5.41,4.86,6.97,8.62,1.56,3.76,2.34,8.47,2.34,14.13v39.41c0,5.58-.78,10.24-2.34,14-1.56,3.76-3.89,6.63-6.97,8.62-3.08,1.98-6.99,2.98-11.72,2.98h-1.14c-4.73,0-8.68-.97-11.85-2.91ZM100.5,1671.12c2.96-3.8,4.44-9.54,4.44-17.23v-39.41c0-7.77-1.48-13.56-4.44-17.36-2.96-3.8-7.56-5.7-13.81-5.7h-1.14c-6.34,0-11.02,1.9-14.07,5.7-3.04,3.8-4.56,9.59-4.56,17.36v39.41c0,7.77,1.52,13.54,4.56,17.3,3.04,3.76,7.73,5.64,14.07,5.64h1.14c6.25,0,10.85-1.9,13.81-5.7Z" fill="lime"/>
  <path d="M319,1676.63c-3.08-1.9-5.38-4.73-6.91-8.49-1.52-3.76-2.28-8.38-2.28-13.88v-40.29c0-5.58.76-10.22,2.28-13.94,1.52-3.72,3.82-6.53,6.91-8.43,3.08-1.9,7.03-2.85,11.85-2.85h1.27c4.48,0,8.15.91,11.02,2.72,2.87,1.82,5.02,4.33,6.46,7.54,1.44,3.21,2.15,6.89,2.15,11.02v15.21h-2.66v-15.21c0-3.72-.59-6.97-1.77-9.76-1.18-2.79-3.02-4.96-5.51-6.53-2.49-1.56-5.72-2.34-9.69-2.34h-1.27c-6.34,0-11,1.86-14,5.58-3,3.72-4.5,9.38-4.5,16.98v40.29c0,7.6,1.5,13.26,4.5,16.98,3,3.72,7.67,5.58,14,5.58h1.27c3.97,0,7.2-.78,9.69-2.34,2.49-1.56,4.33-3.74,5.51-6.53,1.18-2.79,1.77-6.04,1.77-9.76v-10.9h2.66v10.9c0,4.14-.72,7.81-2.15,11.02-1.44,3.21-3.59,5.72-6.46,7.54-2.87,1.82-6.55,2.72-11.02,2.72h-1.27c-4.82,0-8.77-.95-11.85-2.85Z" fill="lime"/>
  <path d="M360.07,1589.77h2.79l16.22,50.69h3.67l16.22-50.69h2.91l-17.11,53.35h-7.6l-17.11-53.35ZM379.58,1641.09h2.66v37.38h-2.66v-37.38Z" fill="lime"/>
  <path d="M418.67,1676.63c-3.08-1.9-5.38-4.73-6.91-8.49-1.52-3.76-2.28-8.38-2.28-13.88v-40.29c0-5.58.76-10.22,2.28-13.94,1.52-3.72,3.82-6.53,6.91-8.43,3.08-1.9,7.03-2.85,11.85-2.85h1.27c4.48,0,8.15.91,11.02,2.72,2.87,1.82,5.02,4.33,6.46,7.54,1.44,3.21,2.15,6.89,2.15,11.02v15.21h-2.66v-15.21c0-3.72-.59-6.97-1.77-9.76-1.18-2.79-3.02-4.96-5.51-6.53-2.49-1.56-5.72-2.34-9.69-2.34h-1.27c-6.34,0-11,1.86-14,5.58-3,3.72-4.5,9.38-4.5,16.98v40.29c0,7.6,1.5,13.26,4.5,16.98,3,3.72,7.67,5.58,14,5.58h1.27c3.97,0,7.2-.78,9.69-2.34,2.49-1.56,4.33-3.74,5.51-6.53,1.18-2.79,1.77-6.04,1.77-9.76v-10.9h2.66v10.9c0,4.14-.72,7.81-2.15,11.02-1.44,3.21-3.59,5.72-6.46,7.54-2.87,1.82-6.55,2.72-11.02,2.72h-1.27c-4.82,0-8.77-.95-11.85-2.85Z" fill="lime"/>
  <path d="M551.59,1676.95c-2.79-1.6-4.86-3.95-6.21-7.03-1.35-3.08-2.03-6.86-2.03-11.34v-10.52h2.53v10.39c0,4.14.61,7.54,1.84,10.2,1.22,2.66,3.02,4.69,5.38,6.08,2.36,1.39,5.32,2.09,8.87,2.09h1.77c5.07,0,8.93-1.31,11.59-3.93,2.66-2.62,3.99-6.5,3.99-11.66v-.76c0-4.73-.76-8.62-2.28-11.66s-3.42-5.51-5.7-7.41c-2.28-1.9-5.28-3.91-9-6.02-3.97-2.45-7.14-4.67-9.5-6.65-2.37-1.98-4.37-4.71-6.02-8.17-1.65-3.46-2.47-7.9-2.47-13.3v-.38c0-3.97.65-7.29,1.96-9.95,1.31-2.66,3.23-4.67,5.77-6.02,2.53-1.35,5.66-2.03,9.38-2.03h1.9c3.88,0,7.16.78,9.82,2.34,2.66,1.56,4.65,3.86,5.96,6.91,1.31,3.04,1.96,6.8,1.96,11.28v12.16h-2.66v-12.16c0-3.88-.57-7.18-1.71-9.88-1.14-2.7-2.83-4.73-5.07-6.08-2.24-1.35-5-2.03-8.3-2.03h-1.9c-4.65,0-8.22,1.29-10.71,3.87-2.49,2.58-3.74,6.4-3.74,11.47v.51c0,4.9.76,8.96,2.28,12.16,1.52,3.21,3.42,5.79,5.7,7.73,2.28,1.94,5.28,4.01,9,6.21,3.97,2.37,7.14,4.52,9.5,6.46,2.36,1.94,4.37,4.61,6.02,7.98,1.65,3.38,2.47,7.65,2.47,12.8v.63c0,3.97-.72,7.31-2.15,10.01-1.44,2.7-3.51,4.73-6.21,6.08-2.7,1.35-6,2.03-9.88,2.03h-1.9c-4.05,0-7.48-.8-10.26-2.41Z" fill="lime"/>
  <path d="M224.65,1592.43h-25.85v83.38h25.85v2.66h-28.38v-88.7h28.38v2.66ZM196.9,1636.27h26.61v2.66h-26.61v-2.66Z" fill="lime"/>
  <path d="M533.02,1592.43h-25.85v83.38h25.85v2.66h-28.38v-88.7h28.38v2.66ZM505.27,1636.27h26.61v2.66h-26.61v-2.66Z" fill="lime"/>
  <path d="M465.45,1589.77h2.53v86.04h26.1v2.66h-28.64v-88.7Z" fill="lime"/>
  <path d="M268.45,1631.84c2.28-2.79,3.42-7.18,3.42-13.18v-9.25c0-5.74-1.14-10.03-3.42-12.86-2.28-2.83-5.79-4.25-10.52-4.25h-17.99v86.17h-2.53v-88.7h20.4c5.58,0,9.78,1.65,12.61,4.94,2.83,3.29,4.24,8.2,4.24,14.7v9.38c0,4.99-.91,9.04-2.72,12.17-1.82,3.13-4.33,5.11-7.54,5.96v.63c3.04.76,5.3,2.43,6.78,5.01,1.48,2.58,2.22,6.06,2.22,10.45v16.22c0,2.7.29,4.54.89,5.51.59.97,1.9,1.46,3.93,1.46.67-.08,1.39-.17,2.15-.25v2.66c-.25.08-.57.13-.95.13h-1.08c-1.94,0-3.46-.32-4.56-.95-1.1-.63-1.9-1.62-2.41-2.98-.51-1.35-.76-3.17-.76-5.45v-16.35c0-5.07-1.04-8.72-3.1-10.96-2.07-2.24-5.3-3.36-9.69-3.36h-18.5v-2.66h18.63c4.73,0,8.24-1.39,10.52-4.18Z" fill="lime"/>
  <path d="M117.07,1589.77h2.53l13.18,84.9h.63l14.32-84.9h4.69l14.07,84.9h.76l13.05-84.9h2.66l-13.69,88.7h-4.56l-14.45-85.02h-.63l-14.45,85.02h-4.43l-13.69-88.7Z" fill="lime"/>
</svg>